<svg id="svg" version="1.1" xmlns="http://www.w3.org/2000/svg" xmlns:xlink="http://www.w3.org/1999/xlink" width="210" height="260" viewBox="0, 0, 400,398.2456140350877"><g id="svgg"><path id="path0" d="M191.036 29.320 C 187.473 29.682,180.178 30.752,178.685 31.132 C 171.743 32.898,165.797 34.716,162.948 35.944 C 145.261 43.567,132.052 54.254,121.380 69.574 C 120.139 71.356,119.124 72.921,119.124 73.053 C 119.124 73.184,118.525 74.236,117.794 75.391 C 113.025 82.918,108.823 94.349,107.185 104.249 L 106.713 107.104 92.101 107.256 L 77.490 107.409 74.303 108.528 C 65.598 111.586,58.731 117.684,55.630 125.109 C 52.436 132.755,52.619 126.535,52.607 227.689 C 52.595 325.970,52.565 324.724,55.088 331.474 C 58.617 340.914,68.527 350.581,77.293 353.133 C 80.973 354.205,82.752 354.592,85.692 354.961 C 90.483 355.562,300.811 355.541,305.063 354.939 C 322.658 352.450,342.411 334.731,345.878 318.327 C 346.815 313.898,346.947 311.180,346.978 295.709 L 347.012 279.266 348.108 278.832 C 357.545 275.092,362.835 269.512,365.381 260.609 C 366.581 256.412,366.528 219.989,365.315 215.314 C 362.960 206.240,357.379 200.157,348.332 196.809 L 347.063 196.339 346.899 167.193 C 346.778 145.645,346.607 137.580,346.241 136.255 C 343.664 126.918,339.851 120.211,334.802 116.131 C 333.739 115.272,332.779 114.461,332.669 114.330 C 332.094 113.639,328.410 111.400,326.057 110.311 C 320.118 107.563,319.470 107.471,304.781 107.301 C 289.256 107.122,289.641 107.166,289.641 105.576 C 289.641 102.981,285.881 89.803,284.817 88.665 C 284.622 88.457,284.462 88.008,284.462 87.666 C 284.462 86.693,279.697 77.510,276.907 73.108 C 266.493 56.672,251.749 44.129,233.387 36.086 C 230.541 34.839,225.290 33.072,224.426 33.070 C 223.946 33.069,223.457 32.913,223.340 32.723 C 223.223 32.533,222.540 32.266,221.822 32.129 C 221.105 31.991,219.711 31.695,218.725 31.471 C 211.170 29.755,197.336 28.680,191.036 29.320 M212.351 30.784 C 215.731 31.362,220.751 32.509,224.104 33.469 C 224.761 33.657,225.747 33.927,226.295 34.070 C 226.843 34.213,227.649 34.484,228.088 34.674 C 228.526 34.863,230.139 35.494,231.673 36.076 C 234.793 37.260,242.658 41.129,244.285 42.280 C 244.866 42.691,245.468 43.028,245.621 43.028 C 245.975 43.028,254.750 49.203,256.336 50.569 C 262.052 55.489,265.031 58.453,268.778 62.948 C 272.685 67.636,276.086 72.531,278.884 77.493 C 280.819 80.926,283.267 85.712,283.267 86.063 C 283.267 86.283,283.618 87.223,284.048 88.152 C 285.655 91.626,287.771 98.437,288.780 103.386 C 289.813 108.452,288.139 107.956,304.219 107.963 C 315.621 107.968,317.345 108.053,320.155 108.757 C 329.447 111.082,338.319 118.501,342.538 127.474 C 346.375 135.636,346.291 134.785,346.572 168.317 L 346.813 196.993 348.008 197.348 C 356.979 200.011,363.479 207.660,365.307 217.703 C 365.962 221.301,365.859 256.075,365.184 259.217 C 363.380 267.625,354.029 278.037,348.232 278.094 C 346.380 278.112,346.414 277.760,346.414 296.500 C 346.414 313.549,346.384 314.258,345.515 317.530 C 340.923 334.817,324.851 350.114,307.171 354.022 C 303.540 354.825,89.173 354.920,83.865 354.122 C 72.441 352.403,60.293 343.209,56.574 333.466 C 56.281 332.699,55.917 331.892,55.764 331.673 C 55.612 331.454,55.059 329.661,54.536 327.689 L 53.586 324.104 53.586 228.685 C 53.586 129.796,53.545 132.547,55.065 128.088 C 57.902 119.767,64.778 112.569,72.633 109.696 C 77.281 107.996,78.330 107.894,92.829 107.725 L 106.972 107.559 107.448 106.270 C 107.709 105.560,107.933 104.532,107.946 103.984 C 107.991 101.995,110.355 92.540,111.157 91.141 C 111.375 90.760,111.554 90.176,111.554 89.842 C 111.554 88.747,116.876 77.568,118.624 74.993 C 119.118 74.265,119.522 73.567,119.522 73.441 C 119.522 72.045,129.566 59.697,134.518 55.004 C 142.275 47.654,154.391 39.754,162.550 36.725 C 172.103 33.179,178.287 31.506,184.824 30.699 C 186.667 30.471,188.276 30.183,188.401 30.059 C 188.912 29.548,208.615 30.144,212.351 30.784 M189.841 39.824 C 189.183 40.000,187.799 40.166,186.763 40.192 C 184.119 40.258,174.720 42.620,170.717 44.224 C 170.279 44.400,168.845 44.955,167.530 45.458 C 151.632 51.539,135.538 65.879,126.213 82.271 C 121.174 91.129,119.084 97.516,117.141 109.993 C 116.621 113.335,116.603 124.574,117.118 124.892 C 117.707 125.256,129.210 125.653,130.414 125.351 L 131.474 125.084 131.482 120.610 C 131.496 112.212,133.116 103.789,135.884 97.714 C 136.307 96.785,136.653 95.840,136.653 95.614 C 136.653 93.997,143.265 82.833,146.560 78.884 C 155.855 67.747,170.537 58.716,183.466 56.180 C 184.343 56.009,186.494 55.579,188.247 55.225 C 191.837 54.501,204.186 54.323,207.451 54.948 C 208.502 55.150,210.528 55.532,211.952 55.797 C 232.067 59.543,251.993 75.965,259.545 95.020 C 260.153 96.554,260.798 98.167,260.978 98.606 C 261.861 100.757,263.297 105.656,263.722 107.968 C 263.984 109.392,264.365 111.309,264.569 112.228 C 264.773 113.147,264.940 116.411,264.940 119.481 L 264.940 125.063 266.235 125.299 C 266.947 125.429,270.219 125.482,273.506 125.417 L 279.482 125.299 279.602 117.928 C 280.082 88.518,257.656 56.217,229.283 45.451 C 227.968 44.952,226.534 44.389,226.096 44.200 C 218.332 40.855,196.025 38.162,189.841 39.824 M205.777 40.273 C 208.979 40.712,214.191 41.577,217.530 42.224 C 219.793 42.662,224.680 44.122,225.592 44.633 C 225.973 44.846,226.501 45.020,226.765 45.020 C 228.172 45.020,242.123 52.497,242.563 53.486 C 242.636 53.650,242.950 53.785,243.260 53.785 C 243.571 53.785,243.825 53.964,243.825 54.183 C 243.825 54.402,244.074 54.582,244.380 54.582 C 244.685 54.582,245.043 54.865,245.176 55.212 C 245.374 55.727,245.182 55.698,244.123 55.051 C 239.531 52.248,232.863 48.800,229.084 47.275 C 228.098 46.877,226.932 46.387,226.494 46.186 C 223.241 44.693,214.537 42.616,208.167 41.813 C 201.805 41.011,186.325 41.685,181.076 42.993 C 180.199 43.211,178.765 43.561,177.888 43.769 C 165.813 46.646,151.457 55.425,141.233 66.186 C 132.227 75.665,128.705 81.119,121.195 97.211 C 120.477 98.750,120.356 98.857,120.339 97.968 C 120.293 95.567,124.751 85.203,127.546 81.213 C 127.953 80.632,128.287 80.040,128.287 79.898 C 128.287 79.486,132.620 73.318,134.597 70.916 C 138.342 66.367,147.271 57.902,150.996 55.369 C 151.763 54.847,152.480 54.310,152.590 54.174 C 153.671 52.832,161.862 48.485,169.124 45.399 C 170.502 44.813,177.644 42.639,180.876 41.822 C 187.463 40.157,199.480 39.409,205.777 40.273 M83.361 58.562 C 82.143 59.076,81.674 60.491,81.667 63.671 C 81.659 67.115,81.666 67.109,77.689 67.260 C 74.911 67.366,74.142 67.540,73.406 68.226 C 71.195 70.291,73.087 73.702,76.449 73.710 C 77.460 73.712,78.959 73.825,79.781 73.961 L 81.275 74.208 81.275 77.206 C 81.275 82.280,84.579 84.780,87.468 81.891 C 88.506 80.853,88.549 80.656,88.452 77.396 C 88.343 73.763,88.402 73.705,92.276 73.705 C 96.364 73.705,97.610 72.886,97.610 70.199 C 97.610 67.788,96.761 67.288,92.152 66.988 L 88.250 66.733 88.248 63.262 C 88.247 58.833,86.559 57.211,83.361 58.562 M87.171 59.442 C 87.474 59.745,87.649 61.265,87.649 63.583 C 87.649 67.904,87.447 67.729,92.440 67.729 C 96.228 67.729,97.225 68.269,97.202 70.308 C 97.180 72.333,95.972 73.018,91.983 73.270 L 88.247 73.506 88.041 77.219 C 87.615 84.889,82.146 84.500,81.673 76.766 L 81.474 73.506 79.283 73.407 C 73.582 73.148,71.356 71.226,73.775 68.651 C 74.540 67.836,75.015 67.728,77.858 67.723 C 82.005 67.715,81.959 67.758,82.128 63.706 C 82.217 61.581,82.478 60.031,82.818 59.623 C 83.466 58.842,86.448 58.719,87.171 59.442 M187.450 62.737 C 162.909 67.012,143.105 87.557,140.203 111.753 C 139.229 119.873,138.991 123.671,139.401 124.570 L 139.824 125.498 176.784 125.442 C 197.113 125.412,223.426 125.277,235.259 125.144 L 256.773 124.900 256.757 119.323 C 256.658 83.688,223.340 56.486,187.450 62.737 M208.765 63.278 C 214.633 64.103,223.517 67.561,228.558 70.982 C 229.474 71.603,230.339 72.112,230.481 72.112 C 231.934 72.112,242.100 81.829,245.070 86.056 C 248.431 90.841,248.057 91.192,243.825 87.220 C 233.482 77.513,226.044 72.541,216.946 69.256 C 205.167 65.001,189.415 65.201,178.685 69.740 C 162.978 76.385,153.227 87.057,144.050 107.643 C 142.318 111.528,140.126 114.792,140.755 112.550 C 140.878 112.112,141.101 110.588,141.252 109.163 C 141.402 107.739,141.637 106.394,141.773 106.175 C 141.910 105.956,142.321 104.701,142.687 103.386 C 147.616 85.694,161.354 71.415,179.084 65.554 C 185.604 63.399,185.784 63.350,187.478 63.299 C 188.339 63.274,189.582 63.107,190.239 62.930 C 191.724 62.530,205.253 62.784,208.765 63.278 M311.959 62.844 C 310.170 63.547,309.401 65.592,309.679 68.909 L 309.914 71.713 306.440 71.713 C 301.966 71.713,300.025 72.858,300.025 75.498 C 300.025 78.099,301.977 79.283,306.264 79.283 L 309.562 79.283 309.562 82.046 C 309.562 86.389,310.452 87.976,313.086 88.329 C 315.874 88.703,316.902 87.303,317.072 82.903 L 317.211 79.283 320.378 79.283 C 324.977 79.283,326.693 78.196,326.693 75.286 C 326.693 72.821,324.840 71.713,320.715 71.713 L 317.211 71.713 317.072 68.093 C 316.892 63.413,315.127 61.601,311.959 62.844 M315.737 64.196 C 316.392 64.825,316.559 65.597,316.673 68.522 C 316.833 72.634,316.971 72.771,320.518 72.328 C 324.211 71.867,326.788 73.678,326.135 76.278 C 325.690 78.054,323.763 78.881,320.066 78.883 C 316.297 78.885,316.349 78.821,316.340 83.435 C 316.333 86.794,315.748 87.649,313.456 87.649 C 311.055 87.649,310.596 86.916,310.361 82.700 L 310.159 79.084 306.504 78.884 C 302.264 78.653,300.786 77.782,300.809 75.528 C 300.835 73.089,302.718 72.112,307.392 72.112 L 310.282 72.112 310.420 68.397 C 310.613 63.206,312.860 61.430,315.737 64.196 M204.458 79.226 C 204.609 79.367,204.789 80.377,204.857 81.470 L 204.980 83.458 209.915 85.915 C 218.283 90.081,218.288 90.095,213.122 95.817 C 209.342 100.004,209.341 100.004,206.508 98.265 C 200.942 94.845,195.528 94.714,193.851 97.957 C 192.955 99.690,193.065 100.317,194.522 101.767 C 195.823 103.062,196.550 103.345,203.785 105.370 C 212.331 107.762,216.307 110.311,217.714 114.299 C 218.445 116.373,218.541 122.599,217.864 124.085 L 217.402 125.100 207.207 125.053 C 201.600 125.028,197.371 124.926,197.809 124.827 C 204.895 123.221,204.065 118.396,196.414 116.720 C 185.731 114.378,180.530 111.030,178.549 105.219 C 177.959 103.487,177.950 97.589,178.536 96.134 C 180.963 90.109,184.521 86.595,190.264 84.552 C 193.137 83.531,193.227 83.429,193.227 81.239 C 193.227 79.561,193.365 79.199,194.124 78.879 C 195.068 78.481,203.980 78.780,204.458 79.226 M190.073 123.237 C 191.297 124.009,192.910 124.715,193.659 124.806 C 194.407 124.898,191.009 125.001,186.107 125.036 C 177.704 125.096,177.225 125.060,177.740 124.410 C 178.683 123.220,180.618 121.035,182.190 119.383 L 183.703 117.793 185.776 119.813 C 186.916 120.924,188.850 122.465,190.073 123.237 M78.018 120.896 C 72.744 122.051,68.160 125.438,66.139 129.675 L 64.937 132.192 65.047 228.148 C 65.123 294.864,65.287 324.530,65.583 325.504 C 67.507 331.824,72.334 337.295,78.841 340.528 L 82.669 342.430 192.629 342.430 C 298.491 342.430,302.694 342.403,305.378 341.691 C 318.002 338.342,327.051 328.204,328.720 315.538 C 328.942 313.854,329.064 305.508,328.999 296.414 L 328.884 280.279 304.781 280.057 C 283.587 279.862,280.319 279.750,277.712 279.128 C 266.089 276.357,258.374 269.140,255.520 258.367 C 254.393 254.112,254.403 223.513,255.533 219.323 C 257.982 210.242,264.126 203.116,273.068 198.984 C 278.501 196.474,278.787 196.450,304.968 196.327 L 328.718 196.215 328.930 195.374 C 330.292 189.972,328.552 160.501,326.657 156.878 C 326.458 156.497,326.291 155.960,326.287 155.683 C 326.278 155.062,324.035 150.611,322.548 148.261 C 320.147 144.471,315.717 140.659,311.440 138.703 C 306.671 136.522,314.361 136.654,191.450 136.647 C 95.878 136.642,77.636 136.554,76.295 136.091 C 71.318 134.372,70.548 129.579,74.800 126.790 C 75.746 126.170,77.483 126.074,91.017 125.896 L 106.175 125.697 106.035 123.506 C 105.957 122.301,105.711 121.091,105.488 120.817 C 104.920 120.121,81.244 120.189,78.018 120.896 M293.946 122.146 C 290.422 125.900,290.180 125.787,302.191 125.991 C 312.883 126.172,312.565 126.118,318.095 128.684 C 323.740 131.303,329.954 137.305,332.689 142.782 C 333.843 145.094,334.263 145.108,334.263 142.834 C 334.263 134.506,328.602 125.774,321.016 122.400 C 320.413 122.132,319.517 121.736,319.024 121.521 C 316.883 120.587,313.975 120.338,305.102 120.328 L 295.661 120.319 293.946 122.146 M105.179 122.086 C 105.179 122.619,105.348 123.500,105.555 124.044 C 106.109 125.501,106.141 125.498,90.306 125.499 C 76.426 125.501,75.847 125.531,74.541 126.328 C 70.973 128.502,70.367 132.083,73.102 134.819 C 75.506 137.223,66.480 137.050,190.587 137.066 C 312.429 137.081,305.821 136.971,310.757 139.062 C 316.314 141.415,321.584 146.484,323.993 151.793 C 326.455 157.219,326.581 158.693,324.347 155.912 C 318.600 148.760,311.706 144.456,304.382 143.445 C 301.843 143.095,273.901 143.009,192.629 143.103 L 84.263 143.227 84.064 234.462 L 83.865 325.697 81.438 323.406 C 78.069 320.225,74.372 320.563,75.057 323.989 C 75.537 326.391,80.612 331.076,82.734 331.076 L 84.064 331.076 84.064 336.454 C 84.064 339.634,83.907 341.833,83.680 341.833 C 79.340 341.833,70.081 334.338,67.438 328.685 C 65.395 324.317,65.547 331.897,65.435 228.410 L 65.332 133.115 66.197 130.803 C 67.710 126.759,72.687 122.694,77.508 121.565 C 78.374 121.362,84.955 121.178,92.131 121.156 L 105.179 121.116 105.179 122.086 M319.522 122.297 C 327.034 125.597,331.869 131.424,333.088 138.645 C 333.716 142.370,333.864 143.607,333.609 143.028 C 333.465 142.699,333.239 142.341,333.108 142.231 C 332.976 142.122,332.624 141.584,332.324 141.036 C 332.025 140.488,330.966 138.964,329.970 137.649 C 328.363 135.526,327.239 134.446,322.982 130.935 C 318.323 127.092,312.731 125.505,303.698 125.463 C 299.582 125.444,295.346 125.309,294.284 125.164 L 292.353 124.900 293.885 122.993 L 295.418 121.086 306.375 121.210 C 316.953 121.330,317.406 121.367,319.522 122.297 M76.373 148.597 C 72.384 151.126,74.818 155.640,79.324 154.069 C 83.482 152.621,84.811 150.281,82.570 148.354 C 80.993 146.998,78.756 147.086,76.373 148.597 M81.411 148.251 C 81.945 148.494,82.586 149.141,82.835 149.688 C 83.881 151.984,78.304 154.801,75.870 153.206 C 72.820 151.208,77.910 146.656,81.411 148.251 M104.701 148.685 C 105.351 149.335,105.306 151.192,104.627 151.756 C 104.253 152.066,102.286 152.178,98.560 152.103 L 93.046 151.992 92.665 150.908 C 91.884 148.682,92.995 148.207,98.986 148.207 C 102.528 148.207,104.378 148.362,104.701 148.685 M123.505 149.200 C 123.901 150.242,123.658 151.393,122.937 151.886 C 122.190 152.398,112.165 152.245,111.633 151.713 C 111.046 151.126,111.019 150.003,111.568 148.978 C 112.295 147.619,122.979 147.817,123.505 149.200 M143.405 148.779 C 143.666 149.093,143.822 149.945,143.752 150.671 L 143.625 151.992 138.103 152.103 C 132.214 152.222,131.474 152.029,131.474 150.378 C 131.474 148.494,132.314 148.207,137.828 148.207 C 141.774 148.207,143.038 148.337,143.405 148.779 M161.522 148.969 C 161.930 149.419,162.158 150.192,162.082 150.861 L 161.952 151.992 155.578 151.992 L 149.203 151.992 149.082 150.747 C 148.863 148.493,149.589 148.207,155.544 148.207 C 160.245 148.207,160.909 148.292,161.522 148.969 M177.860 148.833 C 180.053 151.026,177.917 152.590,172.728 152.590 C 167.847 152.590,166.534 152.160,166.534 150.562 C 166.534 148.509,167.300 148.207,172.510 148.207 C 176.273 148.207,177.361 148.334,177.860 148.833 M196.832 149.040 C 198.222 151.638,196.389 152.577,189.914 152.584 C 183.856 152.591,182.569 151.796,184.078 148.978 C 184.737 147.746,196.169 147.802,196.832 149.040 M217.117 148.978 C 218.518 151.595,217.320 152.191,210.664 152.191 C 204.945 152.191,204.382 152.013,204.382 150.199 C 204.382 148.369,204.923 148.207,211.022 148.207 C 216.233 148.207,216.739 148.271,217.117 148.978 M237.775 149.202 C 238.080 149.869,238.104 150.524,237.849 151.194 L 237.470 152.191 231.707 152.191 C 225.514 152.191,225.356 152.138,225.414 150.081 C 225.463 148.350,225.916 148.220,231.908 148.213 C 237.297 148.207,237.324 148.212,237.775 149.202 M257.129 148.837 C 258.282 151.842,256.904 152.604,250.840 152.314 C 245.014 152.035,244.098 151.471,245.432 148.978 C 246.003 147.911,256.724 147.782,257.129 148.837 M277.291 149.203 C 278.282 151.810,276.816 152.590,270.926 152.590 C 265.406 152.590,263.485 151.272,265.600 148.936 C 266.784 147.627,276.778 147.855,277.291 149.203 M296.447 149.115 C 296.928 150.171,296.343 152.161,295.528 152.242 C 293.462 152.447,284.961 152.030,284.562 151.704 C 283.870 151.138,283.939 149.584,284.690 148.833 C 285.834 147.690,295.907 147.931,296.447 149.115 M309.004 150.131 C 311.023 151.596,314.741 155.675,314.741 156.425 C 314.741 157.306,312.901 158.964,311.924 158.964 C 310.651 158.964,304.382 152.390,304.382 151.055 C 304.382 148.971,306.752 148.498,309.004 150.131 M319.733 165.874 C 320.416 166.850,320.560 173.417,319.934 175.063 C 319.231 176.912,316.439 176.919,315.598 175.073 C 314.980 173.716,315.020 166.524,315.650 165.702 C 316.651 164.398,318.761 164.487,319.733 165.874 M197.699 167.585 L 199.182 167.830 199.292 173.444 L 199.402 179.058 201.394 179.586 C 205.065 180.559,208.950 181.796,210.558 182.504 C 216.119 184.953,218.466 186.139,221.116 187.837 C 224.226 189.831,229.237 193.855,231.241 195.968 L 232.402 197.192 222.874 206.563 C 217.634 211.717,213.257 215.934,213.147 215.933 C 213.038 215.933,211.562 214.804,209.867 213.424 C 194.309 200.754,169.876 201.682,169.932 214.940 C 169.966 222.908,175.576 226.069,193.625 228.292 C 196.881 228.693,199.187 229.052,203.685 229.856 C 211.066 231.177,214.953 232.579,222.808 236.753 C 230.904 241.055,237.026 250.888,237.843 260.903 C 239.121 276.560,232.280 289.127,217.729 297.852 C 214.578 299.741,205.348 303.586,203.963 303.586 C 203.713 303.586,202.540 303.867,201.356 304.212 L 199.203 304.837 199.197 310.088 C 199.189 317.023,200.337 316.367,188.418 316.242 L 178.287 316.135 178.088 310.642 C 177.872 304.682,177.757 304.400,175.544 304.389 C 174.912 304.385,173.747 304.212,172.955 304.004 C 172.162 303.795,170.002 303.250,168.155 302.792 C 162.008 301.268,154.155 297.738,148.406 293.914 C 144.079 291.035,137.450 286.096,137.450 285.751 C 137.450 285.614,141.008 281.907,145.357 277.512 C 149.706 273.117,154.214 268.491,155.375 267.231 C 157.953 264.433,157.343 264.367,161.438 267.885 C 170.938 276.046,178.687 279.265,188.861 279.277 C 200.409 279.291,207.171 274.879,207.171 267.331 C 207.171 258.785,202.316 256.355,178.486 252.975 C 159.458 250.277,148.335 243.978,143.331 233.068 C 132.837 210.187,146.581 185.891,173.322 180.055 C 178.345 178.959,178.088 179.336,178.088 173.092 C 178.088 169.228,178.222 167.741,178.586 167.595 C 179.308 167.303,195.943 167.295,197.699 167.585 M319.522 183.665 C 320.577 184.720,320.704 190.792,319.693 191.804 C 318.674 192.823,315.994 192.638,315.766 191.534 C 314.407 184.963,316.479 180.622,319.522 183.665 M283.865 207.821 C 274.055 209.948,268.574 215.335,267.095 224.303 C 266.285 229.218,266.320 247.758,267.147 251.793 C 268.394 257.873,272.171 262.824,277.679 265.599 C 281.625 267.588,283.006 267.667,314.343 267.698 C 341.649 267.725,345.019 267.538,348.540 265.806 C 352.798 263.711,352.544 265.535,352.610 236.587 C 352.674 208.758,352.851 210.556,349.868 208.685 L 348.406 207.769 316.534 207.709 C 299.004 207.676,284.303 207.726,283.865 207.821 M349.369 209.163 C 351.317 210.266,352.814 212.609,352.402 213.909 C 352.155 214.687,351.658 214.701,319.004 214.820 L 285.857 214.940 283.665 215.976 C 275.548 219.815,273.906 223.992,274.164 240.139 L 274.303 248.805 275.472 251.113 C 276.944 254.018,280.635 257.715,283.685 259.341 C 286.676 260.935,286.616 260.714,284.899 263.745 C 283.063 266.987,282.186 267.190,278.234 265.283 C 274.378 263.424,270.909 259.898,269.016 255.916 L 267.530 252.789 267.530 237.849 C 267.530 221.057,267.516 221.153,270.542 216.698 C 273.345 212.570,277.665 209.797,283.141 208.610 C 285.423 208.115,290.790 208.033,316.733 208.094 L 347.610 208.167 349.369 209.163 M23.002 222.410 C 21.948 223.211,21.514 224.933,21.514 228.313 L 21.514 231.474 18.158 231.474 C 14.351 231.474,12.336 232.697,12.363 234.991 C 12.391 237.295,14.122 238.401,18.087 238.645 L 21.315 238.845 21.521 242.571 C 21.765 246.957,22.376 247.809,25.281 247.809 C 27.839 247.809,28.370 246.976,28.652 242.525 L 28.884 238.845 31.673 238.743 C 36.611 238.564,37.849 237.776,37.849 234.813 C 37.849 232.272,36.527 231.474,32.317 231.474 C 28.601 231.474,28.837 231.782,28.567 226.591 C 28.344 222.312,25.724 220.343,23.002 222.410 M27.115 223.046 C 27.915 223.694,28.051 224.253,28.255 227.728 L 28.486 231.673 31.930 231.788 C 39.388 232.036,39.985 237.841,32.554 237.855 C 28.173 237.863,28.206 237.831,28.141 242.219 C 28.082 246.216,27.425 247.410,25.287 247.410 C 22.773 247.410,21.912 245.903,21.912 241.501 C 21.912 237.839,21.949 237.870,17.530 237.845 C 13.954 237.825,12.268 236.378,13.141 234.079 C 13.721 232.556,15.505 231.873,18.905 231.873 L 21.912 231.873 21.912 228.711 C 21.912 223.054,24.136 220.634,27.115 223.046 M302.590 224.904 C 314.524 229.054,316.990 244.502,306.833 251.490 C 291.045 262.352,272.293 242.285,285.805 228.987 C 290.448 224.417,296.768 222.880,302.590 224.904 M294.866 230.555 C 292.348 230.893,288.446 234.184,288.446 235.970 C 288.446 236.320,288.267 236.717,288.048 236.853 C 287.337 237.292,287.607 240.955,288.488 242.828 C 291.972 250.240,302.678 250.017,306.006 242.464 C 308.884 235.930,302.855 229.484,294.866 230.555 M398.406 230.834 C 398.406 231.212,398.227 231.410,398.008 231.275 C 397.789 231.139,397.610 231.219,397.610 231.451 C 397.610 231.683,397.794 231.873,398.020 231.873 C 398.518 231.873,399.003 230.742,398.655 230.395 C 398.518 230.258,398.406 230.455,398.406 230.834 M302.203 232.371 C 306.655 235.413,307.336 241.256,303.673 244.979 C 298.668 250.066,290.237 247.848,288.395 240.961 C 286.508 233.905,295.899 228.062,302.203 232.371 M1.350 233.929 C 1.506 234.727,2.391 234.785,2.384 233.997 C 2.380 233.433,2.300 233.390,2.034 233.810 C 1.792 234.191,1.625 234.218,1.473 233.900 C 1.324 233.591,1.285 233.600,1.350 233.929 M319.447 286.071 C 320.492 287.045,320.758 293.669,319.805 294.973 C 319.001 296.072,316.303 295.714,315.652 294.422 C 313.357 289.862,316.378 283.213,319.447 286.071 M319.783 302.716 C 321.567 305.062,320.111 313.944,317.942 313.944 C 315.150 313.944,313.831 303.077,316.490 301.975 C 317.586 301.521,319.141 301.871,319.783 302.716 M314.090 321.543 C 315.686 322.798,315.399 323.713,312.450 326.771 C 309.298 330.041,308.017 330.828,306.679 330.319 C 303.935 329.276,304.223 327.847,307.968 323.924 C 311.250 320.487,312.252 320.097,314.090 321.543 M81.863 324.691 C 84.784 327.630,84.993 327.948,84.642 328.933 C 83.805 331.282,82.002 331.093,79.084 328.351 C 75.380 324.871,74.774 323.628,76.154 322.342 C 77.645 320.953,78.493 321.302,81.863 324.691 M107.570 329.042 C 108.461 329.290,108.566 329.527,108.566 331.293 L 108.566 333.267 102.434 333.377 C 95.642 333.499,94.821 333.247,94.821 331.042 C 94.821 328.936,95.536 328.681,101.323 328.725 C 104.211 328.747,107.022 328.889,107.570 329.042 M126.996 328.925 C 128.584 329.243,129.299 330.717,128.587 332.204 L 128.077 333.267 121.537 333.267 L 114.998 333.267 114.717 332.217 C 114.326 330.756,114.700 329.159,115.481 328.952 C 116.506 328.679,125.660 328.658,126.996 328.925 M149.429 329.098 C 149.980 329.393,150.197 329.931,150.193 330.990 C 150.183 333.506,150.204 333.499,143.197 333.377 L 136.853 333.267 136.733 331.206 C 136.624 329.327,136.695 329.129,137.530 328.969 C 139.451 328.602,148.688 328.702,149.429 329.098 M171.090 329.074 C 172.129 329.469,172.491 331.216,171.870 332.836 C 171.508 333.779,159.319 333.777,158.537 332.833 C 157.865 332.024,157.926 329.482,158.627 329.037 C 159.370 328.566,169.836 328.597,171.090 329.074 M192.848 329.482 C 193.061 329.811,193.189 330.797,193.132 331.673 L 193.028 333.267 186.056 333.267 L 179.084 333.267 178.960 331.313 C 178.878 330.025,179.014 329.242,179.358 329.014 C 180.316 328.378,192.405 328.798,192.848 329.482 M212.123 329.311 C 212.841 330.029,212.938 331.571,212.337 332.696 C 211.654 333.971,198.733 333.869,197.831 332.581 C 196.956 331.331,197.061 330.031,198.097 329.305 C 199.403 328.390,211.207 328.395,212.123 329.311 M233.534 329.345 C 234.344 330.077,234.480 331.519,233.851 332.696 C 233.468 333.411,232.954 333.466,226.693 333.466 C 218.933 333.466,217.556 332.694,219.744 329.571 C 220.579 328.378,232.255 328.187,233.534 329.345 M254.052 328.994 C 254.781 329.458,255.066 331.196,254.610 332.396 L 254.196 333.485 247.317 333.376 L 240.438 333.267 240.314 331.544 C 240.114 328.757,240.294 328.684,247.360 328.691 C 250.784 328.695,253.796 328.831,254.052 328.994 M275.325 329.098 C 276.215 329.574,276.412 332.193,275.618 332.988 C 275.288 333.318,273.271 333.466,269.124 333.466 C 264.976 333.466,262.959 333.318,262.629 332.988 C 261.993 332.352,262.009 329.208,262.649 328.949 C 263.616 328.559,274.558 328.687,275.325 329.098 M296.585 329.311 C 297.303 330.029,297.400 331.571,296.799 332.696 C 296.296 333.635,284.256 333.897,283.347 332.988 C 282.843 332.484,282.681 329.404,283.134 328.951 C 283.750 328.335,295.935 328.661,296.585 329.311 " stroke="none" fill="#7ada9f" fill-rule="evenodd"></path><path id="path1" d="M188.401 30.059 C 188.276 30.183,186.667 30.471,184.824 30.699 C 178.287 31.506,172.103 33.179,162.550 36.725 C 154.391 39.754,142.275 47.654,134.518 55.004 C 129.566 59.697,119.522 72.045,119.522 73.441 C 119.522 73.567,119.118 74.265,118.624 74.993 C 116.876 77.568,111.554 88.747,111.554 89.842 C 111.554 90.176,111.375 90.760,111.157 91.141 C 110.355 92.540,107.991 101.995,107.946 103.984 C 107.933 104.532,107.709 105.560,107.448 106.270 L 106.972 107.559 92.829 107.725 C 78.330 107.894,77.281 107.996,72.633 109.696 C 64.778 112.569,57.902 119.767,55.065 128.088 C 53.545 132.547,53.586 129.796,53.586 228.685 L 53.586 324.104 54.536 327.689 C 55.059 329.661,55.612 331.454,55.764 331.673 C 55.917 331.892,56.281 332.699,56.574 333.466 C 60.293 343.209,72.441 352.403,83.865 354.122 C 89.173 354.920,303.540 354.825,307.171 354.022 C 324.851 350.114,340.923 334.817,345.515 317.530 C 346.384 314.258,346.414 313.549,346.414 296.500 C 346.414 277.760,346.380 278.112,348.232 278.094 C 354.029 278.037,363.380 267.625,365.184 259.217 C 365.859 256.075,365.962 221.301,365.307 217.703 C 363.479 207.660,356.979 200.011,348.008 197.348 L 346.813 196.993 346.572 168.317 C 346.291 134.785,346.375 135.636,342.538 127.474 C 338.319 118.501,329.447 111.082,320.155 108.757 C 317.345 108.053,315.621 107.968,304.219 107.963 C 290.022 107.957,289.729 107.926,289.409 106.426 C 289.287 105.850,289.003 104.482,288.780 103.386 C 287.771 98.437,285.655 91.626,284.048 88.152 C 283.618 87.223,283.267 86.283,283.267 86.063 C 283.267 85.712,280.819 80.926,278.884 77.493 C 276.086 72.531,272.685 67.636,268.778 62.948 C 265.031 58.453,262.052 55.489,256.336 50.569 C 254.750 49.203,245.975 43.028,245.621 43.028 C 245.468 43.028,244.866 42.691,244.285 42.280 C 242.658 41.129,234.793 37.260,231.673 36.076 C 230.139 35.494,228.526 34.863,228.088 34.674 C 227.649 34.484,226.843 34.213,226.295 34.070 C 225.747 33.927,224.761 33.657,224.104 33.469 C 214.831 30.815,210.021 30.158,198.597 29.984 C 193.113 29.900,188.525 29.934,188.401 30.059 M209.960 40.164 C 214.957 40.868,223.077 42.900,226.096 44.200 C 226.534 44.389,227.968 44.952,229.283 45.451 C 250.326 53.436,269.688 74.895,276.860 98.181 C 279.285 106.055,279.742 109.349,279.602 117.928 L 279.482 125.299 273.506 125.417 C 270.219 125.482,266.947 125.429,266.235 125.299 L 264.940 125.063 264.940 119.481 C 264.940 116.411,264.773 113.147,264.569 112.228 C 264.365 111.309,263.984 109.392,263.722 107.968 C 263.297 105.656,261.861 100.757,260.978 98.606 C 260.798 98.167,260.153 96.554,259.545 95.020 C 251.993 75.965,232.067 59.543,211.952 55.797 C 210.528 55.532,208.502 55.150,207.451 54.948 C 204.186 54.323,191.837 54.501,188.247 55.225 C 186.494 55.579,184.343 56.009,183.466 56.180 C 170.537 58.716,155.855 67.747,146.560 78.884 C 143.265 82.833,136.653 93.997,136.653 95.614 C 136.653 95.840,136.307 96.785,135.884 97.714 C 133.116 103.789,131.496 112.212,131.482 120.610 L 131.474 125.084 130.414 125.351 C 129.210 125.653,117.707 125.256,117.118 124.892 C 116.603 124.574,116.621 113.335,117.141 109.993 C 119.084 97.516,121.174 91.129,126.213 82.271 C 135.538 65.879,151.632 51.539,167.530 45.458 C 168.845 44.955,170.279 44.400,170.717 44.224 C 174.720 42.620,184.119 40.258,186.763 40.192 C 187.799 40.166,189.183 40.000,189.841 39.824 C 191.345 39.419,206.493 39.676,209.960 40.164 M82.818 59.623 C 82.478 60.031,82.217 61.581,82.128 63.706 C 81.959 67.758,82.005 67.715,77.858 67.723 C 75.015 67.728,74.540 67.836,73.775 68.651 C 71.356 71.226,73.582 73.148,79.283 73.407 L 81.474 73.506 81.673 76.766 C 82.146 84.500,87.615 84.889,88.041 77.219 L 88.247 73.506 91.983 73.270 C 95.972 73.018,97.180 72.333,97.202 70.308 C 97.225 68.269,96.228 67.729,92.440 67.729 C 87.447 67.729,87.649 67.904,87.649 63.583 C 87.649 61.265,87.474 59.745,87.171 59.442 C 86.448 58.719,83.466 58.842,82.818 59.623 M207.693 62.558 C 222.148 64.607,237.732 74.323,246.056 86.475 C 253.372 97.155,256.724 107.445,256.757 119.323 L 256.773 124.900 235.259 125.144 C 223.426 125.277,197.113 125.412,176.784 125.442 L 139.824 125.498 139.401 124.570 C 138.991 123.671,139.229 119.873,140.203 111.753 C 143.105 87.557,162.909 67.012,187.450 62.737 C 190.939 62.130,203.866 62.015,207.693 62.558 M312.578 63.241 C 310.932 63.651,310.563 64.531,310.420 68.397 L 310.282 72.112 307.392 72.112 C 302.718 72.112,300.835 73.089,300.809 75.528 C 300.786 77.782,302.264 78.653,306.504 78.884 L 310.159 79.084 310.361 82.700 C 310.596 86.916,311.055 87.649,313.456 87.649 C 315.748 87.649,316.333 86.794,316.340 83.435 C 316.349 78.821,316.297 78.885,320.066 78.883 C 323.763 78.881,325.690 78.054,326.135 76.278 C 326.788 73.678,324.211 71.867,320.518 72.328 C 316.971 72.771,316.833 72.634,316.673 68.522 C 316.502 64.145,315.280 62.569,312.578 63.241 M105.488 120.817 C 105.711 121.091,105.957 122.301,106.035 123.506 L 106.175 125.697 91.017 125.896 C 77.483 126.074,75.746 126.170,74.800 126.790 C 70.548 129.579,71.318 134.372,76.295 136.091 C 77.636 136.554,95.878 136.642,191.450 136.647 C 314.361 136.654,306.671 136.522,311.440 138.703 C 315.717 140.659,320.147 144.471,322.548 148.261 C 324.035 150.611,326.278 155.062,326.287 155.683 C 326.291 155.960,326.458 156.497,326.657 156.878 C 328.552 160.501,330.292 189.972,328.930 195.374 L 328.718 196.215 304.968 196.327 C 278.787 196.450,278.501 196.474,273.068 198.984 C 264.126 203.116,257.982 210.242,255.533 219.323 C 254.403 223.513,254.393 254.112,255.520 258.367 C 258.374 269.140,266.089 276.357,277.712 279.128 C 280.319 279.750,283.587 279.862,304.781 280.057 L 328.884 280.279 328.999 296.414 C 329.064 305.508,328.942 313.854,328.720 315.538 C 327.051 328.204,318.002 338.342,305.378 341.691 C 302.694 342.403,298.491 342.430,192.629 342.430 L 82.669 342.430 78.841 340.528 C 72.334 337.295,67.507 331.824,65.583 325.504 C 65.287 324.530,65.123 294.864,65.047 228.148 L 64.937 132.192 66.139 129.675 C 68.160 125.438,72.744 122.051,78.018 120.896 C 81.244 120.189,104.920 120.121,105.488 120.817 M316.335 120.734 C 317.321 120.952,318.531 121.306,319.024 121.521 C 319.517 121.736,320.413 122.132,321.016 122.400 C 328.602 125.774,334.263 134.506,334.263 142.834 C 334.263 145.108,333.843 145.094,332.689 142.782 C 329.954 137.305,323.740 131.303,318.095 128.684 C 312.565 126.118,312.883 126.172,302.191 125.991 C 290.180 125.787,290.422 125.900,293.946 122.146 L 295.661 120.319 305.102 120.328 C 310.294 120.334,315.349 120.516,316.335 120.734 M78.251 148.238 C 75.288 149.098,73.929 151.935,75.870 153.206 C 78.304 154.801,83.881 151.984,82.835 149.688 C 82.088 148.047,80.567 147.566,78.251 148.238 M93.017 149.016 C 92.437 149.657,92.364 150.050,92.665 150.908 L 93.046 151.992 98.560 152.103 C 104.538 152.224,105.179 152.042,105.179 150.230 C 105.179 148.387,104.630 148.207,98.986 148.207 C 94.229 148.207,93.682 148.281,93.017 149.016 M111.568 148.978 C 111.019 150.003,111.046 151.126,111.633 151.713 C 112.165 152.245,122.190 152.398,122.937 151.886 C 123.658 151.393,123.901 150.242,123.505 149.200 C 122.979 147.817,112.295 147.619,111.568 148.978 M132.100 148.833 C 131.326 149.608,131.287 151.142,132.027 151.756 C 132.400 152.066,134.370 152.178,138.103 152.103 L 143.625 151.992 143.752 150.671 C 143.971 148.396,143.516 148.207,137.828 148.207 C 133.721 148.207,132.604 148.329,132.100 148.833 M149.609 148.855 C 149.215 149.248,149.009 149.992,149.082 150.747 L 149.203 151.992 155.578 151.992 L 161.952 151.992 162.082 150.861 C 162.344 148.568,161.455 148.207,155.544 148.207 C 151.194 148.207,150.141 148.322,149.609 148.855 M167.160 148.833 C 166.155 149.838,166.361 151.586,167.549 152.127 C 169.398 152.970,176.755 152.727,177.689 151.793 C 180.075 149.407,178.342 148.207,172.510 148.207 C 168.747 148.207,167.659 148.334,167.160 148.833 M184.078 148.978 C 182.569 151.796,183.856 152.591,189.914 152.584 C 196.389 152.577,198.222 151.638,196.832 149.040 C 196.169 147.802,184.737 147.746,184.078 148.978 M204.861 148.685 C 204.598 148.948,204.382 149.629,204.382 150.199 C 204.382 152.013,204.945 152.191,210.664 152.191 C 217.320 152.191,218.518 151.595,217.117 148.978 C 216.616 148.040,205.765 147.781,204.861 148.685 M225.971 148.551 C 225.406 148.909,225.203 150.994,225.662 151.735 C 225.852 152.044,227.810 152.191,231.707 152.191 L 237.470 152.191 237.849 151.194 C 238.817 148.649,237.935 148.206,231.908 148.213 C 228.930 148.217,226.259 148.369,225.971 148.551 M245.432 148.978 C 244.098 151.471,245.014 152.035,250.840 152.314 C 256.904 152.604,258.282 151.842,257.129 148.837 C 256.724 147.782,246.003 147.911,245.432 148.978 M265.600 148.936 C 263.485 151.272,265.406 152.590,270.926 152.590 C 276.816 152.590,278.282 151.810,277.291 149.203 C 276.778 147.855,266.784 147.627,265.600 148.936 M284.690 148.833 C 283.939 149.584,283.870 151.138,284.562 151.704 C 284.961 152.030,293.462 152.447,295.528 152.242 C 296.343 152.161,296.928 150.171,296.447 149.115 C 295.907 147.931,285.834 147.690,284.690 148.833 M305.042 149.733 C 304.074 150.802,304.218 151.452,305.855 153.414 C 310.437 158.908,311.961 159.789,313.763 157.986 C 315.136 156.614,315.018 156.144,312.649 153.550 C 308.814 149.349,306.459 148.167,305.042 149.733 M316.718 164.877 C 314.391 165.646,314.481 175.580,316.822 176.323 C 319.408 177.144,320.319 175.597,320.319 170.381 C 320.319 165.736,319.217 164.052,316.718 164.877 M315.820 183.668 C 315.283 184.434,315.252 189.048,315.766 191.534 C 315.994 192.638,318.674 192.823,319.693 191.804 C 320.704 190.792,320.577 184.720,319.522 183.665 C 318.481 182.625,316.550 182.626,315.820 183.668 M349.868 208.685 C 352.851 210.556,352.674 208.758,352.610 236.587 C 352.544 265.535,352.798 263.711,348.540 265.806 C 345.019 267.538,341.649 267.725,314.343 267.698 C 283.006 267.667,281.625 267.588,277.679 265.599 C 272.171 262.824,268.394 257.873,267.147 251.793 C 266.320 247.758,266.285 229.218,267.095 224.303 C 268.574 215.335,274.055 209.948,283.865 207.821 C 284.303 207.726,299.004 207.676,316.534 207.709 L 348.406 207.769 349.868 208.685 M23.401 222.809 C 22.347 223.609,21.912 225.332,21.912 228.711 L 21.912 231.873 18.905 231.873 C 15.505 231.873,13.721 232.556,13.141 234.079 C 12.268 236.378,13.954 237.825,17.530 237.845 C 21.949 237.870,21.912 237.839,21.912 241.501 C 21.912 245.903,22.773 247.410,25.287 247.410 C 27.425 247.410,28.082 246.216,28.141 242.219 C 28.206 237.831,28.173 237.863,32.554 237.855 C 39.985 237.841,39.388 232.036,31.930 231.788 L 28.486 231.673 28.255 227.728 C 27.966 222.804,26.013 220.825,23.401 222.809 M293.580 224.459 C 283.512 227.365,278.293 237.612,282.739 245.744 C 290.733 260.364,313.108 255.575,313.142 239.237 C 313.162 229.509,302.912 221.765,293.580 224.459 M302.380 231.809 C 311.785 237.511,303.695 251.926,293.484 247.659 C 289.469 245.982,285.629 238.348,288.048 236.853 C 288.267 236.717,288.446 236.320,288.446 235.970 C 288.446 231.557,297.503 228.852,302.380 231.809 M315.936 286.056 C 313.790 288.202,315.132 295.335,317.722 295.547 C 319.963 295.731,320.319 295.050,320.319 290.577 C 320.319 285.698,318.338 283.654,315.936 286.056 M316.490 301.975 C 313.831 303.077,315.150 313.944,317.942 313.944 C 319.781 313.944,320.319 312.557,320.306 307.853 C 320.290 302.350,319.293 300.814,316.490 301.975 M307.968 323.924 C 304.223 327.847,303.935 329.276,306.679 330.319 C 308.017 330.828,309.298 330.041,312.450 326.771 C 315.399 323.713,315.686 322.798,314.090 321.543 C 312.252 320.097,311.250 320.487,307.968 323.924 M76.154 322.342 C 74.774 323.628,75.380 324.871,79.084 328.351 C 82.002 331.093,83.805 331.282,84.642 328.933 C 84.993 327.948,84.784 327.630,81.863 324.691 C 78.493 321.302,77.645 320.953,76.154 322.342 M95.447 329.311 C 94.597 330.161,94.657 331.999,95.561 332.817 C 96.199 333.395,97.146 333.472,102.434 333.377 L 108.566 333.267 108.566 331.293 C 108.566 328.823,108.440 328.779,101.323 328.725 C 97.044 328.693,95.957 328.801,95.447 329.311 M115.481 328.952 C 114.700 329.159,114.326 330.756,114.717 332.217 L 114.998 333.267 121.537 333.267 L 128.077 333.267 128.587 332.204 C 129.299 330.717,128.584 329.243,126.996 328.925 C 125.660 328.658,116.506 328.679,115.481 328.952 M137.530 328.969 C 136.695 329.129,136.624 329.327,136.733 331.206 L 136.853 333.267 143.197 333.377 C 150.204 333.499,150.183 333.506,150.193 330.990 C 150.197 329.931,149.980 329.393,149.429 329.098 C 148.688 328.702,139.451 328.602,137.530 328.969 M158.627 329.037 C 157.926 329.482,157.865 332.024,158.537 332.833 C 159.319 333.777,171.508 333.779,171.870 332.836 C 172.491 331.216,172.129 329.469,171.090 329.074 C 169.836 328.597,159.370 328.566,158.627 329.037 M179.358 329.014 C 179.014 329.242,178.878 330.025,178.960 331.313 L 179.084 333.267 186.056 333.267 L 193.028 333.267 193.132 331.673 C 193.310 328.937,193.216 328.897,186.171 328.776 C 182.711 328.716,179.645 328.823,179.358 329.014 M198.097 329.305 C 197.061 330.031,196.956 331.331,197.831 332.581 C 198.733 333.869,211.654 333.971,212.337 332.696 C 212.938 331.571,212.841 330.029,212.123 329.311 C 211.207 328.395,199.403 328.390,198.097 329.305 M219.744 329.571 C 217.556 332.694,218.933 333.466,226.693 333.466 C 234.066 333.466,234.263 333.401,234.263 330.964 C 234.263 328.953,233.360 328.685,226.585 328.685 C 220.608 328.685,220.340 328.720,219.744 329.571 M240.662 329.253 C 240.403 329.566,240.246 330.597,240.314 331.544 L 240.438 333.267 247.317 333.376 L 254.196 333.485 254.610 332.396 C 255.066 331.196,254.781 329.458,254.052 328.994 C 253.122 328.403,241.176 328.634,240.662 329.253 M262.649 328.949 C 262.009 329.208,261.993 332.352,262.629 332.988 C 262.959 333.318,264.976 333.466,269.124 333.466 C 273.271 333.466,275.288 333.318,275.618 332.988 C 276.412 332.193,276.215 329.574,275.325 329.098 C 274.558 328.687,263.616 328.559,262.649 328.949 M283.134 328.951 C 282.681 329.404,282.843 332.484,283.347 332.988 C 284.256 333.897,296.296 333.635,296.799 332.696 C 297.400 331.571,297.303 330.029,296.585 329.311 C 295.935 328.661,283.750 328.335,283.134 328.951 " stroke="none" fill="#173c33" fill-rule="evenodd"></path><path id="path2" d="M177.689 0.128 C 177.580 0.239,175.815 0.390,173.767 0.463 C 171.719 0.537,169.960 0.732,169.859 0.896 C 169.757 1.061,168.699 1.195,167.506 1.195 C 165.906 1.195,165.339 1.342,165.339 1.757 C 165.339 2.151,164.653 2.384,163.048 2.534 C 159.344 2.881,157.371 3.249,157.371 3.592 C 157.371 3.769,156.340 4.002,155.080 4.112 C 153.820 4.221,151.892 4.515,150.797 4.767 C 149.701 5.018,148.222 5.323,147.510 5.444 C 146.776 5.569,146.215 5.905,146.215 6.219 C 146.215 6.610,145.688 6.773,144.422 6.773 C 143.436 6.773,142.629 6.952,142.629 7.171 C 142.629 7.390,142.181 7.570,141.633 7.570 C 141.086 7.570,140.637 7.749,140.637 7.968 C 140.637 8.187,139.920 8.367,139.044 8.367 C 138.167 8.367,137.450 8.517,137.450 8.701 C 137.450 9.039,133.133 10.230,132.559 10.050 C 132.388 9.996,132.145 10.223,132.018 10.554 C 131.887 10.894,131.297 11.155,130.658 11.155 C 130.037 11.155,129.418 11.335,129.283 11.554 C 129.147 11.773,128.678 11.952,128.240 11.952 C 127.802 11.952,127.554 12.131,127.689 12.351 C 127.832 12.582,127.436 12.749,126.740 12.749 C 126.083 12.749,125.434 12.928,125.299 13.147 C 125.163 13.367,124.604 13.546,124.057 13.546 C 123.494 13.546,123.168 13.719,123.307 13.944 C 123.514 14.280,122.084 14.558,121.016 14.390 C 120.852 14.364,120.717 14.612,120.717 14.940 C 120.717 15.272,120.363 15.538,119.920 15.538 C 119.482 15.538,119.124 15.717,119.124 15.936 C 119.124 16.155,118.675 16.335,118.127 16.335 C 117.580 16.335,117.131 16.514,117.131 16.733 C 117.131 16.952,116.594 17.131,115.936 17.131 C 115.279 17.131,114.741 17.311,114.741 17.530 C 114.741 17.749,114.472 17.928,114.143 17.928 C 113.815 17.928,113.546 18.108,113.546 18.327 C 113.546 18.546,113.092 18.725,112.537 18.725 C 111.983 18.725,111.426 18.994,111.299 19.323 C 111.173 19.651,110.765 19.920,110.391 19.920 C 110.018 19.920,109.325 20.280,108.853 20.721 C 108.381 21.161,107.540 21.558,106.985 21.604 C 106.430 21.650,105.505 22.093,104.928 22.588 C 104.352 23.084,103.724 23.392,103.534 23.275 C 103.343 23.157,103.187 23.340,103.187 23.682 C 103.187 24.078,102.828 24.303,102.195 24.303 C 101.633 24.303,100.986 24.649,100.704 25.100 C 100.402 25.584,99.775 25.896,99.107 25.896 C 98.503 25.896,98.008 26.076,98.008 26.295 C 98.008 26.514,97.739 26.693,97.410 26.693 C 97.082 26.693,96.813 26.873,96.813 27.092 C 96.813 27.311,96.589 27.493,96.315 27.497 C 96.041 27.501,95.395 27.949,94.879 28.493 C 94.362 29.037,93.601 29.482,93.185 29.482 C 92.770 29.482,92.430 29.661,92.430 29.880 C 92.430 30.100,92.195 30.279,91.908 30.279 C 91.620 30.279,91.000 30.637,90.530 31.076 C 90.060 31.514,89.496 31.873,89.278 31.873 C 89.059 31.873,88.445 32.308,87.913 32.841 C 87.380 33.373,86.028 34.288,84.907 34.874 C 83.786 35.460,82.433 36.459,81.899 37.093 C 81.365 37.728,80.630 38.247,80.265 38.247 C 79.901 38.247,79.100 38.785,78.486 39.442 C 77.872 40.100,77.167 40.637,76.919 40.637 C 76.672 40.637,76.366 40.906,76.240 41.235 C 76.114 41.564,75.750 41.833,75.432 41.833 C 75.114 41.833,74.964 42.012,75.100 42.231 C 75.235 42.450,75.076 42.629,74.747 42.629 C 74.418 42.629,73.914 42.955,73.628 43.353 C 73.342 43.752,72.535 44.412,71.834 44.821 C 71.134 45.230,70.652 45.711,70.762 45.890 C 70.873 46.069,70.756 46.215,70.502 46.215 C 70.248 46.215,69.524 46.768,68.892 47.445 C 68.261 48.121,67.517 48.709,67.239 48.752 C 66.961 48.794,65.800 49.765,64.660 50.909 C 63.520 52.052,62.400 52.988,62.170 52.988 C 61.941 52.988,61.753 53.132,61.753 53.309 C 61.753 53.761,59.129 56.574,58.706 56.574 C 58.514 56.574,58.000 57.055,57.565 57.644 C 57.129 58.232,55.921 59.584,54.880 60.648 C 53.840 61.711,52.988 62.843,52.988 63.163 C 52.988 63.483,52.728 63.745,52.410 63.745 C 52.092 63.745,51.650 64.059,51.426 64.442 C 51.203 64.826,51.015 64.978,51.008 64.780 C 50.993 64.330,49.402 66.131,49.402 66.598 C 49.402 66.786,48.865 67.502,48.207 68.190 C 47.550 68.878,47.012 69.604,47.012 69.804 C 47.012 70.003,46.833 70.056,46.614 69.920 C 46.394 69.785,46.215 69.954,46.215 70.295 C 46.215 70.637,46.048 70.916,45.844 70.916 C 45.639 70.916,45.358 71.275,45.219 71.713 C 45.080 72.151,44.705 72.510,44.386 72.510 C 44.066 72.510,43.633 72.963,43.422 73.516 C 43.212 74.070,42.768 74.627,42.436 74.754 C 42.104 74.881,41.833 75.415,41.833 75.939 C 41.833 76.463,41.645 76.892,41.416 76.892 C 40.766 76.892,39.044 78.776,39.044 79.487 C 39.044 79.839,38.865 80.016,38.645 79.880 C 38.426 79.745,38.247 80.003,38.247 80.455 C 38.247 80.906,38.068 81.275,37.849 81.275 C 37.629 81.275,37.450 81.621,37.450 82.044 C 37.450 82.537,37.130 82.859,36.558 82.940 C 36.045 83.014,35.601 83.404,35.515 83.859 C 35.432 84.294,35.026 84.942,34.614 85.300 C 34.202 85.658,33.865 86.161,33.865 86.418 C 33.865 86.858,33.572 87.291,32.371 88.631 C 32.097 88.936,31.873 89.378,31.873 89.613 C 31.873 89.848,31.693 90.040,31.474 90.040 C 31.255 90.040,31.076 90.398,31.076 90.837 C 31.076 91.275,30.826 91.633,30.521 91.633 C 29.940 91.633,29.482 92.461,29.482 93.513 C 29.482 93.853,29.045 94.537,28.511 95.032 C 27.976 95.527,27.643 96.037,27.771 96.164 C 27.898 96.291,27.708 96.509,27.348 96.647 C 26.988 96.785,26.693 97.148,26.693 97.453 C 26.693 97.758,26.514 98.008,26.295 98.008 C 26.076 98.008,25.896 98.367,25.896 98.805 C 25.896 99.243,25.738 99.602,25.544 99.602 C 25.351 99.602,25.061 100.005,24.901 100.498 C 24.740 100.991,24.563 101.529,24.506 101.693 C 24.449 101.858,24.380 102.261,24.353 102.590 C 24.325 102.918,24.034 103.187,23.705 103.187 C 23.376 103.187,23.108 103.464,23.108 103.802 C 23.108 104.139,22.749 104.801,22.311 105.271 C 21.873 105.741,21.514 106.451,21.514 106.848 C 21.514 107.245,21.335 107.570,21.116 107.570 C 20.896 107.570,20.717 107.918,20.717 108.343 C 20.717 108.768,20.538 109.227,20.319 109.363 C 20.100 109.498,19.920 109.957,19.920 110.382 C 19.920 110.807,19.690 111.155,19.407 111.155 C 19.125 111.155,18.864 111.556,18.828 112.046 C 18.791 112.536,18.573 112.999,18.344 113.075 C 18.116 113.151,17.928 113.542,17.928 113.944 C 17.928 114.346,17.704 114.765,17.430 114.876 C 17.069 115.021,17.086 115.085,17.491 115.108 C 17.903 115.131,17.851 115.323,17.292 115.837 C 16.875 116.220,16.474 116.982,16.400 117.530 C 16.326 118.078,16.102 118.696,15.902 118.904 C 15.702 119.113,15.538 119.687,15.538 120.181 C 15.538 120.675,15.090 121.528,14.542 122.075 C 13.994 122.623,13.546 123.528,13.546 124.085 C 13.546 124.643,13.367 125.100,13.147 125.100 C 12.928 125.100,12.749 125.558,12.749 126.119 C 12.749 126.697,12.577 127.032,12.351 126.892 C 12.113 126.746,11.952 127.220,11.952 128.064 C 11.952 128.844,11.773 129.482,11.554 129.482 C 11.335 129.482,11.155 129.821,11.155 130.236 C 11.155 130.651,10.866 131.101,10.513 131.237 C 10.102 131.394,9.945 131.773,10.079 132.283 C 10.194 132.722,10.035 133.335,9.725 133.644 C 9.416 133.953,9.163 134.746,9.163 135.406 C 9.163 136.066,8.984 136.717,8.765 136.853 C 8.546 136.988,8.367 137.526,8.367 138.048 C 8.367 138.570,8.187 139.108,7.968 139.243 C 7.749 139.378,7.570 140.375,7.570 141.458 C 7.570 142.540,7.390 143.426,7.171 143.426 C 6.952 143.426,6.773 143.875,6.773 144.422 C 6.773 145.042,6.547 145.418,6.175 145.418 C 5.717 145.418,5.578 145.927,5.578 147.610 C 5.578 148.815,5.398 149.801,5.179 149.801 C 4.960 149.801,4.781 150.428,4.781 151.195 C 4.781 151.962,4.602 152.590,4.382 152.590 C 4.163 152.590,4.005 152.724,4.031 152.888 C 4.247 154.254,3.912 157.771,3.586 157.570 C 3.349 157.423,3.187 157.890,3.187 158.718 C 3.187 159.485,3.039 160.204,2.858 160.316 C 2.677 160.428,2.486 161.555,2.435 162.821 C 2.384 164.087,2.129 165.258,1.868 165.424 C 1.509 165.652,1.515 165.726,1.892 165.731 C 2.166 165.734,2.390 165.936,2.390 166.178 C 2.390 166.421,2.122 166.516,1.793 166.390 C 1.219 166.170,0.940 168.275,1.167 171.116 C 1.219 171.758,1.155 171.800,0.840 171.332 C 0.239 170.440,0.097 177.532,0.180 204.255 C 0.228 219.566,0.400 228.422,0.655 228.757 C 0.875 229.046,1.096 230.090,1.147 231.076 C 1.276 233.584,1.580 234.528,2.029 233.818 C 2.245 233.477,2.381 234.519,2.384 236.554 C 2.388 238.475,2.556 239.841,2.789 239.841 C 3.008 239.841,3.187 240.558,3.187 241.434 C 3.187 242.311,3.367 243.028,3.586 243.028 C 3.805 243.028,3.984 244.003,3.984 245.196 C 3.984 246.388,4.163 247.474,4.382 247.610 C 4.602 247.745,4.781 248.383,4.781 249.027 C 4.781 249.672,4.960 250.199,5.179 250.199 C 5.398 250.199,5.578 251.083,5.578 252.163 C 5.578 253.377,5.806 254.354,6.175 254.724 C 6.504 255.053,6.773 255.603,6.773 255.948 C 6.773 256.292,6.952 256.574,7.171 256.574 C 7.390 256.574,7.570 257.460,7.570 258.542 C 7.570 259.625,7.749 260.622,7.968 260.757 C 8.187 260.892,8.367 261.610,8.367 262.351 C 8.367 263.092,8.546 263.809,8.765 263.944 C 8.984 264.080,9.163 264.628,9.163 265.163 C 9.163 265.698,9.343 266.135,9.562 266.135 C 9.781 266.135,9.960 266.601,9.960 267.170 C 9.960 268.249,11.098 270.518,11.640 270.518 C 11.812 270.518,11.952 271.163,11.952 271.950 C 11.952 272.738,12.286 273.859,12.694 274.440 C 13.102 275.022,13.560 276.180,13.712 277.014 C 13.864 277.848,14.337 278.879,14.763 279.305 C 15.189 279.731,15.538 280.528,15.538 281.076 C 15.538 281.624,15.717 282.072,15.936 282.072 C 16.155 282.072,16.335 282.610,16.335 283.267 C 16.335 283.924,16.514 284.462,16.733 284.462 C 16.952 284.462,17.131 284.731,17.131 285.060 C 17.131 285.388,17.311 285.657,17.530 285.657 C 17.749 285.657,17.928 286.185,17.928 286.829 C 17.928 287.474,18.108 288.112,18.327 288.247 C 18.546 288.382,18.725 288.841,18.725 289.267 C 18.725 289.692,18.994 290.040,19.323 290.040 C 19.655 290.040,19.920 290.394,19.920 290.837 C 19.920 291.275,20.100 291.633,20.319 291.633 C 20.538 291.633,20.717 292.082,20.717 292.629 C 20.717 293.177,20.896 293.625,21.116 293.625 C 21.335 293.625,21.518 293.850,21.523 294.124 C 21.528 294.397,21.882 295.070,22.311 295.618 C 22.739 296.165,23.094 296.927,23.099 297.311 C 23.104 297.694,23.337 298.008,23.618 298.008 C 23.899 298.008,24.168 298.480,24.216 299.057 C 24.264 299.634,24.661 300.417,25.100 300.797 C 25.538 301.177,25.902 301.825,25.909 302.238 C 25.924 303.141,26.866 304.475,27.231 304.111 C 27.373 303.968,27.490 304.321,27.490 304.896 C 27.490 305.478,27.930 306.380,28.486 306.936 C 29.034 307.484,29.482 308.209,29.482 308.548 C 29.482 308.886,29.661 309.163,29.880 309.163 C 30.100 309.163,30.279 309.432,30.279 309.761 C 30.279 310.090,30.413 310.361,30.578 310.363 C 30.742 310.366,31.219 311.083,31.638 311.957 C 32.057 312.831,32.550 313.546,32.733 313.546 C 32.917 313.546,33.068 313.825,33.068 314.167 C 33.068 314.509,33.217 314.696,33.399 314.583 C 33.581 314.471,33.973 314.998,34.270 315.755 C 34.567 316.512,34.927 317.131,35.070 317.131 C 35.213 317.131,35.534 317.580,35.784 318.127 C 36.034 318.675,36.511 319.124,36.844 319.124 C 37.177 319.124,37.450 319.400,37.450 319.739 C 37.450 320.077,37.907 320.839,38.465 321.432 C 39.023 322.025,39.761 323.093,40.104 323.805 C 40.447 324.517,40.956 325.100,41.235 325.100 C 41.514 325.100,42.030 325.707,42.382 326.449 C 43.026 327.805,45.108 330.279,45.607 330.279 C 46.077 330.279,46.945 331.332,47.080 332.066 C 47.231 332.887,49.590 335.458,50.192 335.458 C 50.415 335.458,50.598 335.646,50.598 335.876 C 50.598 336.314,61.110 347.012,61.540 347.012 C 61.677 347.012,62.214 347.415,62.732 347.908 C 65.141 350.198,66.434 351.316,67.629 352.145 C 68.342 352.638,68.924 353.279,68.924 353.567 C 68.924 353.856,69.564 354.396,70.345 354.767 C 71.126 355.137,72.266 355.965,72.878 356.605 C 73.490 357.245,74.104 357.769,74.242 357.769 C 74.488 357.769,75.672 358.677,76.709 359.661 C 76.998 359.935,77.450 360.159,77.714 360.159 C 77.978 360.159,78.535 360.553,78.953 361.035 C 79.370 361.516,79.962 361.947,80.269 361.992 C 80.575 362.037,81.231 362.451,81.726 362.912 C 82.220 363.372,83.218 363.964,83.942 364.226 C 84.666 364.488,85.259 364.845,85.259 365.020 C 85.259 365.195,85.528 365.339,85.857 365.339 C 86.185 365.339,86.454 365.574,86.454 365.862 C 86.454 366.150,87.082 366.631,87.849 366.932 C 88.616 367.233,89.243 367.625,89.243 367.803 C 89.243 367.982,89.602 368.127,90.040 368.127 C 90.478 368.127,90.837 368.307,90.837 368.526 C 90.837 368.745,91.029 368.924,91.264 368.924 C 91.498 368.924,91.961 369.195,92.292 369.526 C 92.622 369.856,93.062 370.022,93.269 369.894 C 93.476 369.767,93.596 369.895,93.536 370.180 C 93.476 370.465,93.830 370.760,94.323 370.835 C 94.816 370.910,95.219 371.139,95.219 371.342 C 95.219 371.546,95.488 371.713,95.817 371.713 C 96.145 371.713,96.414 371.892,96.414 372.112 C 96.414 372.331,96.690 372.510,97.026 372.510 C 97.362 372.510,98.106 372.817,98.679 373.193 C 99.252 373.568,99.990 373.915,100.319 373.963 C 100.647 374.011,101.024 374.223,101.155 374.435 C 101.287 374.646,102.156 375.148,103.088 375.551 C 104.019 375.954,104.781 376.421,104.781 376.588 C 104.781 376.755,105.229 376.892,105.777 376.892 C 106.325 376.892,106.774 377.027,106.776 377.191 C 106.780 377.552,108.712 378.486,109.454 378.486 C 109.746 378.486,110.088 378.755,110.214 379.084 C 110.345 379.424,110.939 379.681,111.596 379.681 C 112.230 379.681,112.749 379.861,112.749 380.080 C 112.749 380.299,113.029 380.478,113.370 380.478 C 113.712 380.478,113.880 380.657,113.745 380.876 C 113.601 381.110,114.024 381.275,114.770 381.275 C 115.488 381.275,116.323 381.586,116.686 381.989 C 117.041 382.382,117.862 382.742,118.512 382.788 C 119.161 382.835,119.842 383.141,120.025 383.469 C 120.208 383.796,120.798 384.064,121.335 384.064 C 121.871 384.064,122.311 384.243,122.311 384.462 C 122.311 384.681,122.759 384.861,123.307 384.861 C 123.855 384.861,124.303 385.040,124.303 385.259 C 124.303 385.478,124.841 385.657,125.498 385.657 C 126.155 385.657,126.693 385.837,126.693 386.056 C 126.693 386.275,127.041 386.454,127.467 386.454 C 127.892 386.454,128.351 386.633,128.486 386.853 C 128.621 387.072,129.215 387.257,129.804 387.264 C 130.394 387.271,131.225 387.540,131.650 387.861 C 132.075 388.183,132.927 388.446,133.542 388.446 C 134.158 388.446,134.661 388.582,134.661 388.748 C 134.661 389.143,137.559 390.040,138.838 390.040 C 139.390 390.040,139.841 390.219,139.841 390.438 C 139.841 390.657,140.289 390.837,140.837 390.837 C 141.384 390.837,141.833 391.016,141.833 391.235 C 141.833 391.454,142.819 391.633,144.024 391.633 C 145.706 391.633,146.215 391.772,146.215 392.231 C 146.215 392.748,147.465 393.072,148.705 392.876 C 148.870 392.850,149.004 393.008,149.004 393.227 C 149.004 393.446,149.990 393.625,151.195 393.625 C 152.400 393.625,153.386 393.805,153.386 394.024 C 153.386 394.245,154.449 394.422,155.777 394.422 C 157.092 394.422,158.167 394.582,158.167 394.777 C 158.167 395.212,160.147 395.586,164.343 395.944 C 166.146 396.097,167.484 396.388,167.425 396.614 C 167.367 396.833,168.258 397.068,169.405 397.135 C 170.552 397.203,171.675 397.391,171.900 397.552 C 173.193 398.476,225.298 398.483,227.143 397.559 C 227.500 397.381,228.784 397.202,229.996 397.163 C 231.598 397.110,232.146 396.952,232.005 396.582 C 231.859 396.202,232.697 396.025,235.327 395.881 C 239.345 395.661,241.833 395.264,241.833 394.843 C 241.833 394.683,242.940 394.513,244.293 394.464 C 245.646 394.415,247.069 394.207,247.454 394.000 C 247.839 393.794,248.794 393.625,249.575 393.625 C 250.357 393.625,250.996 393.446,250.996 393.227 C 250.996 393.008,251.130 392.850,251.295 392.876 C 252.535 393.072,253.785 392.748,253.785 392.231 C 253.785 391.773,254.291 391.633,255.953 391.633 C 257.145 391.633,258.231 391.454,258.367 391.235 C 258.502 391.016,258.961 390.837,259.386 390.837 C 259.811 390.837,260.159 390.657,260.159 390.438 C 260.159 390.219,260.866 390.040,261.729 390.040 C 262.593 390.040,263.410 389.861,263.546 389.641 C 263.681 389.422,264.240 389.243,264.788 389.243 C 265.336 389.243,265.690 389.091,265.575 388.905 C 265.460 388.719,265.943 388.530,266.647 388.485 C 267.352 388.440,268.152 388.383,268.426 388.359 C 268.700 388.334,268.924 388.074,268.924 387.782 C 268.924 387.428,269.456 387.251,270.518 387.251 C 271.394 387.251,272.112 387.072,272.112 386.853 C 272.112 386.633,272.380 386.454,272.709 386.454 C 273.038 386.454,273.307 386.275,273.307 386.056 C 273.307 385.837,273.809 385.657,274.423 385.657 C 275.633 385.657,277.681 384.845,277.686 384.363 C 277.688 384.198,278.143 384.064,278.698 384.064 C 279.252 384.064,279.809 383.795,279.936 383.466 C 280.062 383.137,280.650 382.869,281.242 382.869 C 281.835 382.869,282.705 382.510,283.175 382.072 C 283.646 381.633,284.497 381.275,285.067 381.275 C 285.656 381.275,285.997 381.103,285.857 380.876 C 285.721 380.657,285.979 380.478,286.431 380.478 C 286.882 380.478,287.251 380.310,287.251 380.105 C 287.251 379.900,287.834 379.676,288.546 379.607 C 289.321 379.532,289.801 379.282,289.741 378.984 C 289.683 378.692,290.053 378.486,290.637 378.486 C 291.185 378.486,291.633 378.327,291.633 378.133 C 291.633 377.629,294.353 376.404,294.825 376.696 C 295.042 376.830,295.219 376.778,295.219 376.580 C 295.219 376.383,295.836 375.889,296.589 375.483 C 297.343 375.077,297.893 374.639,297.813 374.509 C 297.733 374.379,298.147 374.233,298.734 374.185 C 299.321 374.136,299.861 373.919,299.934 373.702 C 300.007 373.485,300.320 373.307,300.631 373.307 C 300.941 373.307,301.195 373.164,301.195 372.988 C 301.195 372.813,301.823 372.443,302.590 372.166 C 303.357 371.888,303.984 371.494,303.984 371.289 C 303.984 371.084,304.343 370.916,304.781 370.916 C 305.219 370.916,305.578 370.712,305.578 370.462 C 305.578 369.850,306.808 368.953,307.669 368.937 C 308.053 368.930,308.367 368.782,308.367 368.608 C 308.367 368.434,308.949 368.119,309.661 367.907 C 310.418 367.682,310.908 367.296,310.840 366.979 C 310.767 366.635,310.949 366.522,311.338 366.672 C 311.676 366.801,311.952 366.764,311.952 366.589 C 311.952 366.413,312.394 366.034,312.935 365.744 C 313.475 365.455,313.806 365.039,313.670 364.819 C 313.534 364.599,313.603 364.530,313.824 364.667 C 314.045 364.803,314.565 364.657,314.981 364.343 C 315.397 364.028,316.011 363.765,316.346 363.758 C 316.681 363.751,317.214 363.386,317.530 362.948 C 317.846 362.510,318.339 362.151,318.626 362.151 C 318.914 362.151,319.252 361.882,319.378 361.554 C 319.504 361.225,319.857 360.956,320.162 360.956 C 320.467 360.956,320.719 360.822,320.722 360.657 C 320.724 360.493,321.441 360.016,322.315 359.597 C 323.189 359.179,323.904 358.675,323.904 358.478 C 323.904 358.281,324.075 358.226,324.283 358.354 C 324.491 358.483,324.858 358.219,325.100 357.769 C 325.341 357.318,325.720 357.062,325.943 357.200 C 326.166 357.338,326.447 357.074,326.567 356.614 C 326.769 355.842,327.180 355.594,328.018 355.740 C 328.198 355.771,328.241 355.626,328.111 355.417 C 327.982 355.208,328.217 354.930,328.632 354.798 C 329.702 354.458,331.075 353.194,331.082 352.543 C 331.087 352.105,331.167 352.115,331.474 352.590 C 331.786 353.073,331.861 353.016,331.866 352.291 C 331.871 351.656,332.110 351.394,332.685 351.394 C 333.460 351.394,337.561 347.654,337.192 347.285 C 337.094 347.187,337.471 346.993,338.029 346.853 C 338.587 346.713,339.044 346.354,339.044 346.055 C 339.044 345.756,339.402 345.417,339.841 345.303 C 340.317 345.178,340.637 344.759,340.637 344.260 C 340.637 343.720,340.892 343.426,341.361 343.426 C 342.206 343.426,344.529 340.956,344.307 340.293 C 344.225 340.044,344.430 339.841,344.765 339.841 C 345.099 339.841,345.623 339.483,345.929 339.046 C 346.235 338.610,346.604 338.370,346.749 338.515 C 346.894 338.660,347.012 338.571,347.012 338.318 C 347.012 337.539,350.348 333.865,351.055 333.865 C 351.242 333.865,351.394 333.661,351.394 333.412 C 351.394 333.163,351.798 332.559,352.291 332.068 C 353.853 330.514,354.893 329.129,354.667 328.904 C 354.547 328.784,354.683 328.685,354.969 328.685 C 355.638 328.685,356.545 327.494,356.561 326.594 C 356.569 326.166,356.882 325.896,357.371 325.896 C 357.809 325.896,358.167 325.637,358.167 325.319 C 358.167 325.002,358.616 324.259,359.163 323.668 C 359.711 323.076,360.159 322.438,360.159 322.249 C 360.159 322.060,360.697 321.342,361.355 320.654 C 362.012 319.967,362.550 319.072,362.550 318.666 C 362.550 318.260,362.742 317.928,362.977 317.928 C 363.611 317.928,364.542 316.879,364.542 316.164 C 364.542 315.820,364.800 315.538,365.116 315.538 C 365.432 315.538,365.818 315.331,365.974 315.078 C 366.157 314.783,366.083 314.726,365.769 314.920 C 365.411 315.142,365.420 314.998,365.803 314.384 C 366.091 313.923,366.463 313.546,366.630 313.546 C 366.796 313.546,366.932 313.308,366.932 313.018 C 366.932 312.727,367.380 312.068,367.928 311.554 C 368.476 311.039,368.924 310.291,368.924 309.891 C 368.924 309.491,369.104 309.163,369.323 309.163 C 369.542 309.163,369.721 308.884,369.721 308.542 C 369.721 308.201,369.863 308.009,370.037 308.116 C 370.210 308.224,370.382 307.923,370.418 307.448 C 370.453 306.974,370.670 306.523,370.899 306.447 C 371.127 306.371,371.315 306.073,371.315 305.786 C 371.315 305.499,371.584 305.161,371.912 305.035 C 372.241 304.909,372.510 304.442,372.510 303.997 C 372.510 303.551,372.667 303.187,372.860 303.187 C 373.053 303.187,373.446 302.605,373.734 301.892 C 374.022 301.180,374.357 300.508,374.479 300.398 C 375.010 299.922,375.697 298.352,375.697 297.615 C 375.697 297.174,375.917 296.858,376.186 296.912 C 376.454 296.967,376.737 296.602,376.813 296.100 C 376.889 295.599,377.297 294.973,377.719 294.710 C 378.180 294.422,378.486 293.785,378.486 293.115 C 378.486 292.501,378.836 291.623,379.263 291.165 C 379.690 290.706,380.153 289.815,380.291 289.186 C 380.430 288.556,380.708 288.143,380.909 288.267 C 381.110 288.391,381.275 288.114,381.275 287.649 C 381.275 287.185,381.416 286.893,381.589 287.000 C 381.761 287.106,381.942 286.723,381.989 286.149 C 382.037 285.574,382.222 285.005,382.402 284.883 C 382.789 284.620,383.327 283.382,383.538 282.271 C 383.620 281.833,383.862 281.414,384.075 281.341 C 384.288 281.268,384.462 280.615,384.462 279.890 C 384.462 279.085,384.695 278.482,385.060 278.342 C 385.388 278.216,385.657 277.838,385.657 277.503 C 385.657 277.167,385.837 276.892,386.056 276.892 C 386.275 276.892,386.454 276.265,386.454 275.498 C 386.454 274.731,386.633 274.104,386.853 274.104 C 387.072 274.104,387.251 273.745,387.251 273.307 C 387.251 272.869,387.430 272.510,387.649 272.510 C 387.869 272.510,388.048 271.882,388.048 271.116 C 388.048 270.349,388.227 269.721,388.446 269.721 C 388.665 269.721,388.845 269.382,388.845 268.967 C 388.845 268.552,389.096 268.116,389.402 267.999 C 389.745 267.867,389.960 267.202,389.960 266.276 C 389.960 265.446,390.157 264.702,390.398 264.622 C 390.639 264.541,390.837 264.168,390.837 263.792 C 390.837 263.415,391.061 262.866,391.335 262.571 C 391.739 262.135,391.721 262.094,391.235 262.351 C 390.749 262.607,390.731 262.566,391.135 262.130 C 391.409 261.835,391.633 261.092,391.633 260.478 C 391.633 259.865,391.813 259.363,392.032 259.363 C 392.251 259.363,392.430 258.556,392.430 257.570 C 392.430 256.584,392.610 255.777,392.829 255.777 C 393.048 255.777,393.227 255.431,393.227 255.009 C 393.227 254.586,393.496 253.971,393.825 253.643 C 394.213 253.254,394.422 252.267,394.422 250.825 C 394.422 249.604,394.563 248.606,394.736 248.606 C 394.908 248.606,395.093 248.023,395.147 247.311 C 395.201 246.599,395.418 245.956,395.630 245.883 C 395.842 245.810,396.016 244.589,396.016 243.170 C 396.016 241.751,396.166 240.683,396.350 240.797 C 396.533 240.910,396.713 240.248,396.749 239.326 C 396.785 238.404,396.993 237.590,397.212 237.517 C 397.432 237.443,397.610 235.965,397.610 234.206 C 397.610 232.302,397.761 231.122,397.988 231.262 C 398.408 231.522,398.773 229.850,398.913 227.030 C 398.963 226.010,399.110 225.242,399.240 225.322 C 401.028 226.426,399.854 168.443,398.060 167.040 C 397.481 166.587,397.497 166.557,398.207 166.765 C 398.953 166.983,398.960 166.961,398.307 166.423 C 397.770 165.981,397.610 165.238,397.610 163.203 C 397.610 161.705,397.437 160.558,397.211 160.558 C 396.992 160.558,396.813 160.110,396.813 159.562 C 396.813 159.014,396.633 158.566,396.414 158.566 C 396.184 158.566,396.016 157.312,396.016 155.601 C 396.016 153.971,395.837 152.526,395.618 152.390 C 395.398 152.255,395.219 151.617,395.219 150.973 C 395.219 150.328,395.040 149.801,394.821 149.801 C 394.602 149.801,394.422 149.106,394.422 148.256 C 394.422 147.369,394.168 146.500,393.825 146.215 C 393.496 145.942,393.227 145.193,393.227 144.549 C 393.227 143.871,393.060 143.483,392.829 143.625 C 392.601 143.766,392.430 143.413,392.430 142.799 C 392.430 141.481,391.646 138.650,391.066 137.872 C 390.755 137.455,390.760 137.371,391.086 137.566 C 391.526 137.829,391.305 137.042,390.157 134.263 C 389.931 133.715,389.831 133.043,389.936 132.769 C 390.040 132.495,389.837 132.271,389.485 132.271 C 389.068 132.271,388.845 131.924,388.845 131.275 C 388.845 130.727,388.665 130.279,388.446 130.279 C 388.227 130.279,388.048 129.741,388.048 129.084 C 388.048 128.426,387.869 127.888,387.649 127.888 C 387.430 127.888,387.251 127.540,387.251 127.115 C 387.251 126.690,387.072 126.231,386.853 126.096 C 386.633 125.960,386.454 125.422,386.454 124.900 C 386.454 124.378,386.275 123.841,386.056 123.705 C 385.837 123.570,385.657 123.021,385.657 122.486 C 385.657 121.888,385.428 121.514,385.060 121.514 C 384.659 121.514,384.462 121.113,384.462 120.295 C 384.462 119.584,384.296 119.179,384.064 119.323 C 383.839 119.462,383.665 119.135,383.665 118.573 C 383.665 118.025,383.486 117.466,383.267 117.331 C 383.048 117.195,382.869 116.736,382.869 116.311 C 382.869 115.886,382.689 115.538,382.470 115.538 C 382.251 115.538,382.066 115.045,382.059 114.442 C 382.046 113.287,381.039 111.614,380.561 111.952 C 380.406 112.062,380.223 111.569,380.154 110.857 C 380.085 110.144,379.861 109.562,379.656 109.562 C 379.451 109.562,379.283 109.293,379.283 108.964 C 379.283 108.635,379.104 108.367,378.884 108.367 C 378.665 108.367,378.486 107.918,378.486 107.371 C 378.486 106.823,378.307 106.375,378.088 106.375 C 377.869 106.375,377.689 106.005,377.689 105.554 C 377.689 105.103,377.510 104.845,377.291 104.980 C 377.072 105.116,376.892 104.852,376.892 104.393 C 376.892 103.935,376.624 103.457,376.295 103.331 C 375.966 103.205,375.697 102.674,375.697 102.152 C 375.697 101.629,375.339 100.978,374.900 100.704 C 374.416 100.402,374.104 99.775,374.104 99.107 C 374.104 98.503,373.924 98.008,373.705 98.008 C 373.486 98.008,373.307 97.728,373.307 97.387 C 373.307 97.045,373.127 96.877,372.908 97.012 C 372.559 97.228,372.481 97.064,372.519 96.205 C 372.525 96.090,372.076 95.576,371.523 95.064 C 370.970 94.551,370.518 93.788,370.518 93.369 C 370.518 92.949,370.159 92.348,369.721 92.032 C 369.283 91.716,368.924 91.215,368.924 90.919 C 368.924 90.623,368.700 90.131,368.426 89.826 C 367.244 88.508,366.932 88.057,366.932 87.666 C 366.932 87.438,366.753 87.251,366.534 87.251 C 366.315 87.251,366.135 87.038,366.135 86.779 C 366.135 86.519,365.764 85.911,365.310 85.427 C 364.856 84.944,364.436 84.215,364.377 83.808 C 364.318 83.400,363.885 83.011,363.410 82.940 C 362.870 82.860,362.550 82.527,362.550 82.044 C 362.550 81.621,362.414 81.275,362.249 81.275 C 362.083 81.275,361.695 80.705,361.387 80.008 C 360.673 78.396,359.373 76.892,358.693 76.892 C 358.404 76.892,358.167 76.525,358.167 76.077 C 358.167 75.628,357.361 74.443,356.375 73.443 C 355.388 72.442,354.582 71.466,354.582 71.274 C 354.582 71.081,354.044 70.409,353.386 69.781 C 352.729 69.153,352.191 68.456,352.191 68.233 C 352.191 67.631,349.158 64.521,348.861 64.818 C 348.720 64.958,348.606 64.814,348.606 64.497 C 348.606 64.180,348.247 63.662,347.809 63.347 C 347.371 63.031,347.012 62.620,347.012 62.433 C 347.012 62.037,345.991 60.956,345.618 60.956 C 345.126 60.956,344.223 59.813,344.223 59.192 C 344.223 58.847,344.089 58.587,343.924 58.613 C 343.066 58.748,342.672 58.478,342.548 57.669 C 342.473 57.176,342.192 56.818,341.923 56.873 C 341.654 56.927,341.434 56.782,341.434 56.550 C 341.434 56.318,341.227 56.256,340.974 56.413 C 340.702 56.581,340.622 56.523,340.779 56.269 C 341.132 55.698,339.902 54.502,339.311 54.841 C 339.054 54.988,338.961 54.977,339.104 54.818 C 339.357 54.535,337.325 52.191,336.827 52.191 C 336.688 52.191,336.027 51.609,335.358 50.896 C 334.689 50.184,333.967 49.654,333.755 49.717 C 333.542 49.781,333.469 49.572,333.591 49.253 C 333.739 48.869,333.350 48.452,332.444 48.022 C 331.690 47.665,330.588 46.888,329.994 46.296 C 329.400 45.704,328.773 45.264,328.601 45.319 C 328.428 45.374,328.332 45.198,328.386 44.930 C 328.441 44.661,328.101 44.382,327.630 44.310 C 327.160 44.237,326.683 43.830,326.572 43.404 C 326.450 42.940,326.026 42.629,325.512 42.629 C 325.040 42.629,324.765 42.450,324.900 42.231 C 325.036 42.012,324.867 41.833,324.526 41.833 C 324.184 41.833,323.904 41.648,323.904 41.422 C 323.904 41.196,323.591 40.894,323.207 40.752 C 322.824 40.610,322.241 40.211,321.912 39.866 C 321.584 39.520,320.779 38.970,320.125 38.643 C 319.471 38.316,318.574 37.745,318.133 37.374 C 317.692 37.004,316.793 36.242,316.135 35.681 C 315.478 35.121,314.666 34.662,314.331 34.662 C 313.996 34.662,313.463 34.303,313.147 33.865 C 312.832 33.426,312.333 33.068,312.040 33.068 C 311.747 33.068,311.610 32.901,311.735 32.698 C 311.861 32.495,311.572 32.204,311.092 32.052 C 310.613 31.900,309.859 31.438,309.418 31.027 C 308.976 30.616,308.380 30.279,308.092 30.279 C 307.805 30.279,307.570 30.100,307.570 29.880 C 307.570 29.661,307.236 29.482,306.827 29.482 C 306.419 29.482,305.657 29.072,305.134 28.571 C 304.611 28.070,303.690 27.447,303.088 27.185 C 302.485 26.924,301.992 26.517,301.992 26.280 C 301.992 26.043,301.827 25.951,301.626 26.076 C 301.424 26.200,300.976 26.019,300.630 25.672 C 300.173 25.216,300.000 25.185,300.000 25.558 C 300.000 25.842,299.721 25.675,299.380 25.188 C 299.027 24.684,298.340 24.303,297.786 24.303 C 297.251 24.303,296.813 24.072,296.813 23.790 C 296.813 23.508,296.412 23.247,295.922 23.210 C 295.432 23.173,294.969 22.956,294.893 22.727 C 294.817 22.498,294.411 22.311,293.991 22.311 C 293.571 22.311,293.227 22.131,293.227 21.912 C 293.227 21.693,292.951 21.514,292.613 21.514 C 292.275 21.514,291.614 21.155,291.143 20.717 C 290.673 20.279,289.963 19.920,289.566 19.920 C 289.169 19.920,288.845 19.674,288.845 19.373 C 288.845 19.043,288.416 18.825,287.766 18.825 C 287.172 18.825,286.619 18.623,286.537 18.376 C 286.455 18.130,286.134 17.928,285.823 17.928 C 285.513 17.928,285.256 17.704,285.253 17.430 C 285.249 17.098,285.118 17.131,284.861 17.530 C 284.603 17.928,284.472 17.961,284.468 17.629 C 284.465 17.356,284.104 17.131,283.665 17.131 C 283.227 17.131,282.869 16.952,282.869 16.733 C 282.869 16.514,282.600 16.335,282.271 16.335 C 281.942 16.335,281.673 16.155,281.673 15.936 C 281.673 15.717,281.046 15.538,280.279 15.538 C 279.407 15.538,278.884 15.346,278.884 15.025 C 278.884 14.743,278.484 14.482,277.994 14.445 C 277.504 14.408,277.041 14.191,276.965 13.962 C 276.888 13.733,276.393 13.546,275.863 13.546 C 275.334 13.546,274.900 13.367,274.900 13.147 C 274.900 12.928,274.363 12.749,273.705 12.749 C 273.048 12.749,272.509 12.615,272.507 12.450 C 272.502 11.999,270.487 11.155,269.414 11.155 C 268.894 11.155,268.200 10.886,267.871 10.558 C 267.543 10.229,266.933 9.960,266.518 9.960 C 266.102 9.960,265.123 9.602,264.343 9.163 C 263.562 8.725,262.302 8.367,261.542 8.367 C 260.781 8.367,260.159 8.187,260.159 7.968 C 260.159 7.749,259.722 7.570,259.187 7.570 C 258.652 7.570,258.104 7.390,257.968 7.171 C 257.833 6.952,257.124 6.773,256.394 6.773 C 255.634 6.773,254.975 6.538,254.855 6.225 C 254.642 5.669,253.359 5.300,250.299 4.914 C 249.368 4.797,248.606 4.539,248.606 4.342 C 248.606 4.145,247.620 3.984,246.414 3.984 C 245.209 3.984,244.223 3.843,244.223 3.670 C 244.223 3.498,243.643 3.313,242.935 3.259 C 242.226 3.205,241.473 2.987,241.261 2.775 C 241.050 2.564,239.638 2.390,238.125 2.390 C 235.922 2.390,235.416 2.278,235.588 1.829 C 235.750 1.408,235.292 1.211,233.738 1.035 C 232.603 0.906,230.956 0.698,230.080 0.574 C 228.049 0.284,177.956 -0.142,177.689 0.128 M212.351 30.272 C 214.871 30.708,217.739 31.247,218.725 31.471 C 219.711 31.695,221.105 31.991,221.822 32.129 C 222.540 32.266,223.223 32.533,223.340 32.723 C 223.457 32.913,223.946 33.069,224.426 33.070 C 225.290 33.072,230.541 34.839,233.387 36.086 C 251.749 44.129,266.493 56.672,276.907 73.108 C 279.697 77.510,284.462 86.693,284.462 87.666 C 284.462 88.008,284.622 88.457,284.817 88.665 C 285.881 89.803,289.641 102.981,289.641 105.576 C 289.641 107.166,289.256 107.122,304.781 107.301 C 319.470 107.471,320.118 107.563,326.057 110.311 C 328.410 111.400,332.094 113.639,332.669 114.330 C 332.779 114.461,333.739 115.272,334.802 116.131 C 339.851 120.211,343.664 126.918,346.241 136.255 C 346.607 137.580,346.778 145.645,346.899 167.193 L 347.063 196.339 348.332 196.809 C 357.379 200.157,362.960 206.240,365.315 215.314 C 366.528 219.989,366.581 256.412,365.381 260.609 C 362.835 269.512,357.545 275.092,348.108 278.832 L 347.012 279.266 346.978 295.709 C 346.947 311.180,346.815 313.898,345.878 318.327 C 342.411 334.731,322.658 352.450,305.063 354.939 C 300.811 355.541,90.483 355.562,85.692 354.961 C 82.752 354.592,80.973 354.205,77.293 353.133 C 68.527 350.581,58.617 340.914,55.088 331.474 C 52.565 324.724,52.595 325.970,52.607 227.689 C 52.619 126.535,52.436 132.755,55.630 125.109 C 58.731 117.684,65.598 111.586,74.303 108.528 L 77.490 107.409 92.101 107.256 L 106.713 107.104 107.185 104.249 C 108.823 94.349,113.025 82.918,117.794 75.391 C 118.525 74.236,119.124 73.184,119.124 73.053 C 119.124 72.556,123.765 66.178,126.912 62.351 C 136.195 51.062,148.082 42.351,162.948 35.944 C 165.797 34.716,171.743 32.898,178.685 31.132 C 180.178 30.752,187.473 29.682,191.036 29.320 C 194.915 28.926,207.920 29.507,212.351 30.272 M190.438 40.304 C 184.044 41.049,181.857 41.480,176.494 43.049 C 170.597 44.774,170.124 44.940,166.335 46.621 C 160.427 49.242,153.494 53.051,152.590 54.174 C 152.480 54.310,151.763 54.847,150.996 55.369 C 147.271 57.902,138.342 66.367,134.597 70.916 C 132.620 73.318,128.287 79.486,128.287 79.898 C 128.287 80.040,127.953 80.632,127.546 81.213 C 124.751 85.203,120.293 95.567,120.339 97.968 C 120.356 98.857,120.477 98.750,121.195 97.211 C 128.705 81.119,132.227 75.665,141.233 66.186 C 151.457 55.425,165.813 46.646,177.888 43.769 C 178.765 43.561,180.199 43.211,181.076 42.993 C 186.325 41.685,201.805 41.011,208.167 41.813 C 214.537 42.616,223.241 44.693,226.494 46.186 C 226.932 46.387,228.098 46.877,229.084 47.275 C 232.863 48.800,239.531 52.248,244.123 55.051 C 245.182 55.698,245.374 55.727,245.176 55.212 C 245.043 54.865,244.685 54.582,244.380 54.582 C 244.074 54.582,243.825 54.402,243.825 54.183 C 243.825 53.964,243.571 53.785,243.260 53.785 C 242.950 53.785,242.636 53.650,242.563 53.486 C 242.123 52.497,228.172 45.020,226.765 45.020 C 226.501 45.020,225.973 44.846,225.592 44.633 C 224.680 44.122,219.793 42.662,217.530 42.224 C 205.385 39.871,198.402 39.376,190.438 40.304 M87.622 59.165 C 88.094 59.638,88.247 60.642,88.248 63.262 L 88.250 66.733 92.152 66.988 C 96.761 67.288,97.610 67.788,97.610 70.199 C 97.610 72.886,96.364 73.705,92.276 73.705 C 88.402 73.705,88.343 73.763,88.452 77.396 C 88.549 80.656,88.506 80.853,87.468 81.891 C 84.579 84.780,81.275 82.280,81.275 77.206 L 81.275 74.208 79.781 73.961 C 78.959 73.825,77.460 73.712,76.449 73.710 C 73.087 73.702,71.195 70.291,73.406 68.226 C 74.142 67.540,74.911 67.366,77.689 67.260 C 81.666 67.109,81.659 67.115,81.667 63.671 C 81.679 58.727,84.815 56.354,87.622 59.165 M190.239 62.930 C 189.582 63.107,188.339 63.274,187.478 63.299 C 185.784 63.350,185.604 63.399,179.084 65.554 C 161.354 71.415,147.616 85.694,142.687 103.386 C 142.321 104.701,141.910 105.956,141.773 106.175 C 141.637 106.394,141.402 107.739,141.252 109.163 C 141.101 110.588,140.878 112.112,140.755 112.550 C 140.126 114.792,142.318 111.528,144.050 107.643 C 153.227 87.057,162.978 76.385,178.685 69.740 C 189.415 65.201,205.167 65.001,216.946 69.256 C 226.044 72.541,233.482 77.513,243.825 87.220 C 248.057 91.192,248.431 90.841,245.070 86.056 C 242.100 81.829,231.934 72.112,230.481 72.112 C 230.339 72.112,229.474 71.603,228.558 70.982 C 223.517 67.561,214.633 64.103,208.765 63.278 C 205.253 62.784,191.724 62.530,190.239 62.930 M315.814 63.511 C 316.862 64.412,316.941 64.700,317.072 68.093 L 317.211 71.713 320.715 71.713 C 324.840 71.713,326.693 72.821,326.693 75.286 C 326.693 78.196,324.977 79.283,320.378 79.283 L 317.211 79.283 317.072 82.903 C 316.902 87.303,315.874 88.703,313.086 88.329 C 310.452 87.976,309.562 86.389,309.562 82.046 L 309.562 79.283 306.264 79.283 C 301.977 79.283,300.025 78.099,300.025 75.498 C 300.025 72.858,301.966 71.713,306.440 71.713 L 309.914 71.713 309.679 68.909 C 309.235 63.616,312.548 60.702,315.814 63.511 M194.124 78.879 C 193.365 79.199,193.227 79.561,193.227 81.239 C 193.227 83.429,193.137 83.531,190.264 84.552 C 184.521 86.595,180.963 90.109,178.536 96.134 C 177.950 97.589,177.959 103.487,178.549 105.219 C 180.530 111.030,185.731 114.378,196.414 116.720 C 204.065 118.396,204.895 123.221,197.809 124.827 C 197.371 124.926,201.600 125.028,207.207 125.053 L 217.402 125.100 217.864 124.085 C 218.541 122.599,218.445 116.373,217.714 114.299 C 216.307 110.311,212.331 107.762,203.785 105.370 C 196.550 103.345,195.823 103.062,194.522 101.767 C 193.065 100.317,192.955 99.690,193.851 97.957 C 195.528 94.714,200.942 94.845,206.508 98.265 C 209.341 100.004,209.342 100.004,213.122 95.817 C 218.288 90.095,218.283 90.081,209.915 85.915 L 204.980 83.458 204.857 81.470 C 204.789 80.377,204.609 79.367,204.458 79.226 C 203.980 78.780,195.068 78.481,194.124 78.879 M182.190 119.383 C 180.618 121.035,178.683 123.220,177.740 124.410 C 177.225 125.060,177.704 125.096,186.107 125.036 C 191.009 125.001,194.407 124.898,193.659 124.806 C 191.904 124.593,188.408 122.378,185.776 119.813 L 183.703 117.793 182.190 119.383 M77.508 121.565 C 72.687 122.694,67.710 126.759,66.197 130.803 L 65.332 133.115 65.435 228.410 C 65.547 331.897,65.395 324.317,67.438 328.685 C 70.081 334.338,79.340 341.833,83.680 341.833 C 83.907 341.833,84.064 339.634,84.064 336.454 L 84.064 331.076 82.734 331.076 C 80.612 331.076,75.537 326.391,75.057 323.989 C 74.372 320.563,78.069 320.225,81.438 323.406 L 83.865 325.697 84.064 234.462 L 84.263 143.227 192.629 143.103 C 273.901 143.009,301.843 143.095,304.382 143.445 C 311.706 144.456,318.600 148.760,324.347 155.912 C 326.581 158.693,326.455 157.219,323.993 151.793 C 321.584 146.484,316.314 141.415,310.757 139.062 C 305.821 136.971,312.429 137.081,190.587 137.066 C 66.480 137.050,75.506 137.223,73.102 134.819 C 70.367 132.083,70.973 128.502,74.541 126.328 C 75.847 125.531,76.426 125.501,90.306 125.499 C 106.141 125.498,106.109 125.501,105.555 124.044 C 105.348 123.500,105.179 122.619,105.179 122.086 L 105.179 121.116 92.131 121.156 C 84.955 121.178,78.374 121.362,77.508 121.565 M293.885 122.993 L 292.353 124.900 294.284 125.164 C 295.346 125.309,299.582 125.444,303.698 125.463 C 312.731 125.505,318.323 127.092,322.982 130.935 C 327.239 134.446,328.363 135.526,329.970 137.649 C 330.966 138.964,332.025 140.488,332.324 141.036 C 332.624 141.584,332.976 142.122,333.108 142.231 C 333.239 142.341,333.465 142.699,333.609 143.028 C 333.864 143.607,333.716 142.370,333.088 138.645 C 331.869 131.424,327.034 125.597,319.522 122.297 C 317.406 121.367,316.953 121.330,306.375 121.210 L 295.418 121.086 293.885 122.993 M82.570 148.354 C 84.811 150.281,83.482 152.621,79.324 154.069 C 76.494 155.056,74.502 153.936,74.502 151.359 C 74.502 148.217,80.021 146.161,82.570 148.354 M178.586 167.595 C 178.222 167.741,178.088 169.228,178.088 173.092 C 178.088 179.336,178.345 178.959,173.322 180.055 C 146.581 185.891,132.837 210.187,143.331 233.068 C 148.335 243.978,159.458 250.277,178.486 252.975 C 202.316 256.355,207.171 258.785,207.171 267.331 C 207.171 274.879,200.409 279.291,188.861 279.277 C 178.687 279.265,170.938 276.046,161.438 267.885 C 157.343 264.367,157.953 264.433,155.375 267.231 C 154.214 268.491,149.706 273.117,145.357 277.512 C 141.008 281.907,137.450 285.614,137.450 285.751 C 137.450 286.096,144.079 291.035,148.406 293.914 C 154.155 297.738,162.008 301.268,168.155 302.792 C 170.002 303.250,172.162 303.795,172.955 304.004 C 173.747 304.212,174.912 304.385,175.544 304.389 C 177.757 304.400,177.872 304.682,178.088 310.642 L 178.287 316.135 188.418 316.242 C 200.337 316.367,199.189 317.023,199.197 310.088 L 199.203 304.837 201.356 304.212 C 202.540 303.867,203.713 303.586,203.963 303.586 C 205.348 303.586,214.578 299.741,217.729 297.852 C 232.280 289.127,239.121 276.560,237.843 260.903 C 237.026 250.888,230.904 241.055,222.808 236.753 C 214.953 232.579,211.066 231.177,203.685 229.856 C 199.187 229.052,196.881 228.693,193.625 228.292 C 175.576 226.069,169.966 222.908,169.932 214.940 C 169.876 201.682,194.309 200.754,209.867 213.424 C 211.562 214.804,213.038 215.933,213.147 215.933 C 213.257 215.934,217.634 211.717,222.874 206.563 L 232.402 197.192 231.241 195.968 C 229.237 193.855,224.226 189.831,221.116 187.837 C 218.466 186.139,216.119 184.953,210.558 182.504 C 208.950 181.796,205.065 180.559,201.394 179.586 L 199.402 179.058 199.292 173.444 L 199.182 167.830 197.699 167.585 C 195.943 167.295,179.308 167.303,178.586 167.595 M283.141 208.610 C 277.665 209.797,273.345 212.570,270.542 216.698 C 267.516 221.153,267.530 221.057,267.530 237.849 L 267.530 252.789 269.016 255.916 C 270.909 259.898,274.378 263.424,278.234 265.283 C 282.186 267.190,283.063 266.987,284.899 263.745 C 286.616 260.714,286.676 260.935,283.685 259.341 C 280.635 257.715,276.944 254.018,275.472 251.113 L 274.303 248.805 274.164 240.139 C 273.906 223.992,275.548 219.815,283.665 215.976 L 285.857 214.940 319.004 214.820 C 351.658 214.701,352.155 214.687,352.402 213.909 C 352.814 212.609,351.317 210.266,349.369 209.163 L 347.610 208.167 316.733 208.094 C 290.790 208.033,285.423 208.115,283.141 208.610 M27.687 222.707 C 28.211 223.286,28.450 224.339,28.567 226.591 C 28.837 231.782,28.601 231.474,32.317 231.474 C 36.527 231.474,37.849 232.272,37.849 234.813 C 37.849 237.776,36.611 238.564,31.673 238.743 L 28.884 238.845 28.652 242.525 C 28.370 246.976,27.839 247.809,25.281 247.809 C 22.376 247.809,21.765 246.957,21.521 242.571 L 21.315 238.845 18.087 238.645 C 14.122 238.401,12.391 237.295,12.363 234.991 C 12.336 232.697,14.351 231.474,18.158 231.474 L 21.514 231.474 21.514 228.313 C 21.514 223.316,22.347 221.912,25.313 221.912 C 26.461 221.912,27.189 222.156,27.687 222.707 M292.370 232.224 C 284.821 237.011,288.135 247.610,297.182 247.610 C 305.933 247.610,309.346 237.252,302.203 232.371 C 299.516 230.534,295.137 230.469,292.370 232.224 " stroke="none" fill="#fafbf3" fill-rule="evenodd"></path></g></svg>